*%FSLAX53Y53*
SFA1.0B1.0*%
G70*
G90*
G01*
D02*
D12*
X9650Y8400D02*
X9950Y8475D01*
X9825Y8600D01*
X11075Y8350D02*
X11150Y8400D01*
X10850Y8300D02*
X10925Y8250D01*
X11150Y8500D02*
X11225Y8425D01*
X8975Y8525D02*
X9125Y8675D01*
X9175Y8675D02*
X9350Y8500D01*
X8975Y8275D02*
X8975Y8525D01*
D02*
D14*
X9225Y8225D02*
X9300Y8325D01*
X9250Y8375D02*
X9250Y8525D01*
X9150Y8600D01*
X9250Y8375D02*
X9300Y8325D01*
X9900Y8375D02*
X10075Y8375D01*
X10425Y8400D01*
X9600Y8250D02*
X9700Y8250D01*
D02*
D13*
X10040Y8315D02*
X10225Y8250D01*
X9960Y8315D02*
X10040Y8315D01*
X9825Y8250D02*
X9960Y8315D01*
D02*
D14*
X9700Y8325D02*
X9900Y8375D01*
X9300Y8325D02*
X9700Y8325D01*
D02*
D13*
X10925Y9090D02*
X11075Y8650D01*
X10100Y9090D02*
X10925Y9090D01*
X10100Y8725D02*
X10100Y9090D01*
X9595Y9090D01*
X9425Y8850D01*
D02*
D14*
X10550Y8800D02*
X10675Y9025D01*
D02*
D12*
X9575Y9125D02*
X11425Y9125D01*
X11475Y9075D01*
X9125Y8675D02*
X9175Y8675D01*
X8800Y9000D02*
X8925Y8900D01*
X9350Y8900D01*
X9575Y8650D02*
X9575Y8750D01*
X9575Y8650D02*
X9650Y8600D01*
X8975Y9000D02*
X9150Y9000D01*
X9350Y9000D01*
D02*
D14*
X8700Y8600D02*
X8800Y8600D01*
X9850Y8700D02*
X10000Y8600D01*
X9650Y8700D02*
X9850Y8700D01*
X8150Y8800D02*
X8700Y8600D01*
D02*
D12*
X9575Y8750D02*
X9700Y8750D01*
X10000Y9000D01*
D02*
D13*
X9350Y8800D02*
X9425Y8850D01*
D02*
D12*
X9350Y9000D02*
X9575Y9125D01*
D02*
D13*
X10100Y8725D02*
X10225Y8725D01*
D02*
D14*
X10550Y8800D02*
X10850Y8800D01*
D02*
D13*
X11075Y8650D02*
X11150Y8600D01*
D02*
D12*
X5950Y8400D02*
X6250Y8475D01*
X6125Y8600D01*
X7375Y8350D02*
X7450Y8400D01*
X7150Y8300D02*
X7225Y8250D01*
X7450Y8500D02*
X7525Y8425D01*
X5275Y8525D02*
X5425Y8675D01*
X5475Y8675D02*
X5650Y8500D01*
X5275Y8275D02*
X5275Y8525D01*
D02*
D14*
X5525Y8225D02*
X5600Y8325D01*
X5550Y8375D02*
X5550Y8525D01*
X5450Y8600D01*
X5550Y8375D02*
X5600Y8325D01*
X6200Y8375D02*
X6375Y8375D01*
X6725Y8400D01*
X5900Y8250D02*
X6000Y8250D01*
D02*
D13*
X6340Y8315D02*
X6525Y8250D01*
X6260Y8315D02*
X6340Y8315D01*
X6125Y8250D02*
X6260Y8315D01*
D02*
D14*
X6000Y8325D02*
X6200Y8375D01*
X5600Y8325D02*
X6000Y8325D01*
D02*
D13*
X7225Y9090D02*
X7375Y8650D01*
X6400Y9090D02*
X7225Y9090D01*
X6400Y8725D02*
X6400Y9090D01*
X5895Y9090D01*
X5725Y8850D01*
D02*
D14*
X6850Y8800D02*
X6975Y9025D01*
D02*
D12*
X5875Y9125D02*
X7725Y9125D01*
X7775Y9075D01*
X5425Y8675D02*
X5475Y8675D01*
X5100Y9000D02*
X5225Y8900D01*
X5650Y8900D01*
X5875Y8650D02*
X5875Y8750D01*
X5875Y8650D02*
X5950Y8600D01*
X5275Y9000D02*
X5450Y9000D01*
X5650Y9000D01*
D02*
D14*
X5000Y8600D02*
X5100Y8600D01*
X6150Y8700D02*
X6300Y8600D01*
X5950Y8700D02*
X6150Y8700D01*
X4450Y8800D02*
X5000Y8600D01*
D02*
D12*
X5875Y8750D02*
X6000Y8750D01*
X6300Y9000D01*
D02*
D13*
X5650Y8800D02*
X5725Y8850D01*
D02*
D12*
X5650Y9000D02*
X5875Y9125D01*
D02*
D13*
X6400Y8725D02*
X6525Y8725D01*
D02*
D14*
X6850Y8800D02*
X7150Y8800D01*
D02*
D13*
X7375Y8650D02*
X7450Y8600D01*
D02*
D12*
X2250Y8400D02*
X2550Y8475D01*
X2425Y8600D01*
X3675Y8350D02*
X3750Y8400D01*
X3450Y8300D02*
X3525Y8250D01*
X3750Y8500D02*
X3825Y8425D01*
X1575Y8525D02*
X1725Y8675D01*
X1775Y8675D02*
X1950Y8500D01*
X1575Y8275D02*
X1575Y8525D01*
D02*
D14*
X1825Y8225D02*
X1900Y8325D01*
X1850Y8375D02*
X1850Y8525D01*
X1750Y8600D01*
X1850Y8375D02*
X1900Y8325D01*
X2500Y8375D02*
X2675Y8375D01*
X3025Y8400D01*
X2200Y8250D02*
X2300Y8250D01*
D02*
D13*
X2640Y8315D02*
X2825Y8250D01*
X2560Y8315D02*
X2640Y8315D01*
X2425Y8250D02*
X2560Y8315D01*
D02*
D14*
X2300Y8325D02*
X2500Y8375D01*
X1900Y8325D02*
X2300Y8325D01*
D02*
D13*
X3525Y9090D02*
X3675Y8650D01*
X2700Y9090D02*
X3525Y9090D01*
X2700Y8725D02*
X2700Y9090D01*
X2195Y9090D01*
X2025Y8850D01*
D02*
D14*
X3150Y8800D02*
X3275Y9025D01*
D02*
D12*
X2175Y9125D02*
X4025Y9125D01*
X4075Y9075D01*
X1725Y8675D02*
X1775Y8675D01*
X1400Y9000D02*
X1525Y8900D01*
X1950Y8900D01*
X2175Y8650D02*
X2175Y8750D01*
X2175Y8650D02*
X2250Y8600D01*
X1575Y9000D02*
X1750Y9000D01*
X1950Y9000D01*
D02*
D14*
X1300Y8600D02*
X1400Y8600D01*
X2450Y8700D02*
X2600Y8600D01*
X2250Y8700D02*
X2450Y8700D01*
X750Y8800D02*
X1300Y8600D01*
D02*
D12*
X2175Y8750D02*
X2300Y8750D01*
X2600Y9000D01*
D02*
D13*
X1950Y8800D02*
X2025Y8850D01*
D02*
D12*
X1950Y9000D02*
X2175Y9125D01*
D02*
D13*
X2700Y8725D02*
X2825Y8725D01*
D02*
D14*
X3150Y8800D02*
X3450Y8800D01*
D02*
D13*
X3675Y8650D02*
X3750Y8600D01*
D02*
D14*
X10150Y7200D02*
X10425Y7200D01*
D02*
D12*
X9550Y7475D02*
X9650Y7475D01*
X9425Y7675D02*
X9550Y7475D01*
X9575Y7250D02*
X9650Y7200D01*
X9525Y7425D02*
X9575Y7250D01*
X9400Y7625D02*
X9525Y7425D01*
D02*
D14*
X10550Y7500D02*
X10725Y7800D01*
X8725Y7650D02*
X9100Y7200D01*
X9275Y7400D02*
X9450Y7375D01*
X9075Y7625D02*
X9275Y7400D01*
X9825Y7475D02*
X9825Y7725D01*
D02*
D13*
X8550Y7825D02*
X8700Y7200D01*
D02*
D14*
X10975Y7375D02*
X11350Y7375D01*
X10975Y7375D02*
X10975Y7750D01*
X10975Y7375D01*
X10300Y7375D01*
X10200Y7475D01*
D02*
D12*
X10875Y7775D02*
X10875Y7950D01*
X10800Y8000D01*
X10400Y8025D01*
D02*
D14*
X10550Y8100D02*
X10850Y8075D01*
X11000Y7925D01*
X11425Y7925D01*
D02*
D12*
X11075Y8100D02*
X11075Y8350D01*
X11075Y8100D02*
X11100Y8075D01*
X11025Y8000D02*
X11300Y8000D01*
X10925Y8250D02*
X11025Y8000D01*
X11300Y8000D02*
X11325Y8025D01*
D02*
D14*
X11425Y7925D02*
X11425Y8025D01*
D02*
D12*
X11225Y8100D02*
X11225Y8425D01*
X11200Y8075D02*
X11225Y8100D01*
X11475Y7750D02*
X11475Y9075D01*
D02*
D14*
X9175Y8175D02*
X9225Y8225D01*
X8925Y8175D02*
X9175Y8175D01*
X8800Y8275D02*
X8925Y8175D01*
X9875Y8175D02*
X10000Y8250D01*
X9775Y8175D02*
X9875Y8175D01*
X9700Y8250D02*
X9775Y8175D01*
X9350Y8175D02*
X9600Y8250D01*
X9225Y7800D02*
X9250Y8125D01*
X9350Y8175D01*
D02*
D13*
X8550Y7825D02*
X8550Y7925D01*
X8625Y8275D01*
D02*
D12*
X8825Y7700D02*
X8975Y7875D01*
X9350Y7675D02*
X9425Y7675D01*
X9275Y7625D02*
X9400Y7625D01*
X9175Y7700D02*
X9275Y7625D01*
D02*
D14*
X10725Y7800D02*
X10800Y7800D01*
X8700Y8175D02*
X8700Y8600D01*
X8700Y8175D02*
X9050Y7975D01*
X9150Y7875D01*
X8700Y8175D02*
X8725Y7650D01*
X9475Y7900D02*
X9650Y7975D01*
X9475Y7900D02*
X9550Y7700D01*
X9650Y7675D01*
X9350Y7975D02*
X9475Y7900D01*
X9000Y7650D02*
X9075Y7625D01*
X9100Y7800D02*
X9225Y7800D01*
X9000Y7650D02*
X9100Y7800D01*
D02*
D12*
X10800Y7700D02*
X10875Y7775D01*
D02*
D14*
X10675Y7900D02*
X10800Y7900D01*
D02*
D12*
X9750Y7875D02*
X9800Y7925D01*
X9725Y7625D02*
X9750Y7875D01*
X9650Y7575D02*
X9725Y7625D01*
X11325Y7825D02*
X11400Y7750D01*
X11475Y7750D01*
X11375Y7700D02*
X11425Y7625D01*
X11100Y7675D02*
X11150Y7600D01*
X11225Y7700D02*
X11375Y7700D01*
X11200Y7675D02*
X11225Y7700D01*
X11150Y7600D02*
X11300Y7600D01*
X11325Y7625D01*
D02*
D14*
X9825Y7725D02*
X9925Y7675D01*
D02*
D12*
X10100Y8025D02*
X10400Y8025D01*
X9800Y7925D02*
X10100Y8025D01*
D02*
D14*
X10400Y7575D02*
X10675Y7900D01*
X10100Y7575D02*
X10400Y7575D01*
X9925Y7675D02*
X10100Y7575D01*
X10225Y8150D02*
X10550Y8100D01*
X6450Y7200D02*
X6725Y7200D01*
D02*
D12*
X5850Y7475D02*
X5950Y7475D01*
X5725Y7675D02*
X5850Y7475D01*
X5875Y7250D02*
X5950Y7200D01*
X5825Y7425D02*
X5875Y7250D01*
X5700Y7625D02*
X5825Y7425D01*
D02*
D14*
X6850Y7500D02*
X7025Y7800D01*
X5025Y7650D02*
X5400Y7200D01*
X5575Y7400D02*
X5750Y7375D01*
X5375Y7625D02*
X5575Y7400D01*
X6125Y7475D02*
X6125Y7725D01*
D02*
D13*
X4850Y7825D02*
X5000Y7200D01*
D02*
D14*
X7275Y7375D02*
X7650Y7375D01*
X7275Y7375D02*
X7275Y7750D01*
X7275Y7375D01*
X6600Y7375D01*
X6500Y7475D01*
D02*
D12*
X7175Y7775D02*
X7175Y7950D01*
X7100Y8000D01*
X6700Y8025D01*
D02*
D14*
X6850Y8100D02*
X7150Y8075D01*
X7300Y7925D01*
X7725Y7925D01*
D02*
D12*
X7375Y8100D02*
X7375Y8350D01*
X7375Y8100D02*
X7400Y8075D01*
X7325Y8000D02*
X7600Y8000D01*
X7225Y8250D02*
X7325Y8000D01*
X7600Y8000D02*
X7625Y8025D01*
D02*
D14*
X7725Y7925D02*
X7725Y8025D01*
D02*
D12*
X7525Y8100D02*
X7525Y8425D01*
X7500Y8075D02*
X7525Y8100D01*
X7775Y7750D02*
X7775Y9075D01*
D02*
D14*
X5475Y8175D02*
X5525Y8225D01*
X5225Y8175D02*
X5475Y8175D01*
X5100Y8275D02*
X5225Y8175D01*
X6175Y8175D02*
X6300Y8250D01*
X6075Y8175D02*
X6175Y8175D01*
X6000Y8250D02*
X6075Y8175D01*
X5650Y8175D02*
X5900Y8250D01*
X5525Y7800D02*
X5550Y8125D01*
X5650Y8175D01*
D02*
D13*
X4850Y7825D02*
X4850Y7925D01*
X4925Y8275D01*
D02*
D12*
X5125Y7700D02*
X5275Y7875D01*
X5650Y7675D02*
X5725Y7675D01*
X5575Y7625D02*
X5700Y7625D01*
X5475Y7700D02*
X5575Y7625D01*
D02*
D14*
X7025Y7800D02*
X7100Y7800D01*
X5000Y8175D02*
X5000Y8600D01*
X5000Y8175D02*
X5350Y7975D01*
X5450Y7875D01*
X5000Y8175D02*
X5025Y7650D01*
X5775Y7900D02*
X5950Y7975D01*
X5775Y7900D02*
X5850Y7700D01*
X5950Y7675D01*
X5650Y7975D02*
X5775Y7900D01*
X5300Y7650D02*
X5375Y7625D01*
X5400Y7800D02*
X5525Y7800D01*
X5300Y7650D02*
X5400Y7800D01*
D02*
D12*
X7100Y7700D02*
X7175Y7775D01*
D02*
D14*
X6975Y7900D02*
X7100Y7900D01*
D02*
D12*
X6050Y7875D02*
X6100Y7925D01*
X6025Y7625D02*
X6050Y7875D01*
X5950Y7575D02*
X6025Y7625D01*
X7625Y7825D02*
X7700Y7750D01*
X7775Y7750D01*
X7675Y7700D02*
X7725Y7625D01*
X7400Y7675D02*
X7450Y7600D01*
X7525Y7700D02*
X7675Y7700D01*
X7500Y7675D02*
X7525Y7700D01*
X7450Y7600D02*
X7600Y7600D01*
X7625Y7625D01*
D02*
D14*
X6125Y7725D02*
X6225Y7675D01*
D02*
D12*
X6400Y8025D02*
X6700Y8025D01*
X6100Y7925D02*
X6400Y8025D01*
D02*
D14*
X6700Y7575D02*
X6975Y7900D01*
X6400Y7575D02*
X6700Y7575D01*
X6225Y7675D02*
X6400Y7575D01*
X6525Y8150D02*
X6850Y8100D01*
X2750Y7200D02*
X3025Y7200D01*
D02*
D12*
X2150Y7475D02*
X2250Y7475D01*
X2025Y7675D02*
X2150Y7475D01*
X2175Y7250D02*
X2250Y7200D01*
X2125Y7425D02*
X2175Y7250D01*
X2000Y7625D02*
X2125Y7425D01*
D02*
D14*
X3150Y7500D02*
X3325Y7800D01*
X1325Y7650D02*
X1700Y7200D01*
X1875Y7400D02*
X2050Y7375D01*
X1675Y7625D02*
X1875Y7400D01*
X2425Y7475D02*
X2425Y7725D01*
D02*
D13*
X1150Y7825D02*
X1300Y7200D01*
D02*
D14*
X3575Y7375D02*
X3950Y7375D01*
X3575Y7375D02*
X3575Y7750D01*
X3575Y7375D01*
X2900Y7375D01*
X2800Y7475D01*
D02*
D12*
X3475Y7775D02*
X3475Y7950D01*
X3400Y8000D01*
X3000Y8025D01*
D02*
D14*
X3150Y8100D02*
X3450Y8075D01*
X3600Y7925D01*
X4025Y7925D01*
D02*
D12*
X3675Y8100D02*
X3675Y8350D01*
X3675Y8100D02*
X3700Y8075D01*
X3625Y8000D02*
X3900Y8000D01*
X3525Y8250D02*
X3625Y8000D01*
X3900Y8000D02*
X3925Y8025D01*
D02*
D14*
X4025Y7925D02*
X4025Y8025D01*
D02*
D12*
X3825Y8100D02*
X3825Y8425D01*
X3800Y8075D02*
X3825Y8100D01*
X4075Y7750D02*
X4075Y9075D01*
D02*
D14*
X1775Y8175D02*
X1825Y8225D01*
X1525Y8175D02*
X1775Y8175D01*
X1400Y8275D02*
X1525Y8175D01*
X2475Y8175D02*
X2600Y8250D01*
X2375Y8175D02*
X2475Y8175D01*
X2300Y8250D02*
X2375Y8175D01*
X1950Y8175D02*
X2200Y8250D01*
X1825Y7800D02*
X1850Y8125D01*
X1950Y8175D01*
D02*
D13*
X1150Y7825D02*
X1150Y7925D01*
X1225Y8275D01*
D02*
D12*
X1425Y7700D02*
X1575Y7875D01*
X1950Y7675D02*
X2025Y7675D01*
X1875Y7625D02*
X2000Y7625D01*
X1775Y7700D02*
X1875Y7625D01*
D02*
D14*
X3325Y7800D02*
X3400Y7800D01*
X1300Y8175D02*
X1300Y8600D01*
X1300Y8175D02*
X1650Y7975D01*
X1750Y7875D01*
X1300Y8175D02*
X1325Y7650D01*
X2075Y7900D02*
X2250Y7975D01*
X2075Y7900D02*
X2150Y7700D01*
X2250Y7675D01*
X1950Y7975D02*
X2075Y7900D01*
X1600Y7650D02*
X1675Y7625D01*
X1700Y7800D02*
X1825Y7800D01*
X1600Y7650D02*
X1700Y7800D01*
D02*
D12*
X3400Y7700D02*
X3475Y7775D01*
D02*
D14*
X3275Y7900D02*
X3400Y7900D01*
D02*
D12*
X2350Y7875D02*
X2400Y7925D01*
X2325Y7625D02*
X2350Y7875D01*
X2250Y7575D02*
X2325Y7625D01*
X3925Y7825D02*
X4000Y7750D01*
X4075Y7750D01*
X3975Y7700D02*
X4025Y7625D01*
X3700Y7675D02*
X3750Y7600D01*
X3825Y7700D02*
X3975Y7700D01*
X3800Y7675D02*
X3825Y7700D01*
X3750Y7600D02*
X3900Y7600D01*
X3925Y7625D01*
D02*
D14*
X2425Y7725D02*
X2525Y7675D01*
D02*
D12*
X2700Y8025D02*
X3000Y8025D01*
X2400Y7925D02*
X2700Y8025D01*
D02*
D14*
X3000Y7575D02*
X3275Y7900D01*
X2700Y7575D02*
X3000Y7575D01*
X2525Y7675D02*
X2700Y7575D01*
X2825Y8150D02*
X3150Y8100D01*
X10025Y7075D02*
X10150Y7200D01*
X9175Y6900D02*
X9350Y6900D01*
X9575Y7000D02*
X9650Y7000D01*
X9350Y6900D02*
X9575Y7000D01*
X9450Y7375D01*
X9650Y7000D02*
X9725Y7000D01*
X9100Y7200D02*
X9350Y7100D01*
X10025Y6525D02*
X10200Y6525D01*
X10550Y6800D01*
X10625Y7200D02*
X11350Y7175D01*
X9725Y7125D02*
X9825Y7475D01*
X9650Y7100D02*
X9725Y7125D01*
D02*
D12*
X9650Y6900D02*
X9825Y6800D01*
D02*
D14*
X9650Y6800D02*
X9825Y6700D01*
D02*
D12*
X9650Y6700D02*
X9775Y6625D01*
X9850Y6625D01*
X10200Y6925D01*
D02*
D14*
X9725Y7000D02*
X9825Y7025D01*
X9000Y6900D02*
X9175Y6900D01*
D02*
D13*
X8700Y7200D02*
X8900Y6900D01*
D02*
D14*
X9825Y7025D02*
X10025Y7075D01*
X10575Y7075D02*
X11350Y6975D01*
X10425Y7200D02*
X10575Y7075D01*
X6325Y7075D02*
X6450Y7200D01*
X5475Y6900D02*
X5650Y6900D01*
X5875Y7000D02*
X5950Y7000D01*
X5650Y6900D02*
X5875Y7000D01*
X5750Y7375D01*
X5950Y7000D02*
X6025Y7000D01*
X5400Y7200D02*
X5650Y7100D01*
X6325Y6525D02*
X6500Y6525D01*
X6850Y6800D01*
X6925Y7200D02*
X7650Y7175D01*
X6025Y7125D02*
X6125Y7475D01*
X5950Y7100D02*
X6025Y7125D01*
D02*
D12*
X5950Y6900D02*
X6125Y6800D01*
D02*
D14*
X5950Y6800D02*
X6125Y6700D01*
D02*
D12*
X5950Y6700D02*
X6075Y6625D01*
X6150Y6625D01*
X6500Y6925D01*
D02*
D14*
X6025Y7000D02*
X6125Y7025D01*
X5300Y6900D02*
X5475Y6900D01*
D02*
D13*
X5000Y7200D02*
X5200Y6900D01*
D02*
D14*
X6125Y7025D02*
X6325Y7075D01*
X6875Y7075D02*
X7650Y6975D01*
X6725Y7200D02*
X6875Y7075D01*
X2625Y7075D02*
X2750Y7200D01*
X1775Y6900D02*
X1950Y6900D01*
X2175Y7000D02*
X2250Y7000D01*
X1950Y6900D02*
X2175Y7000D01*
X2050Y7375D01*
X2250Y7000D02*
X2325Y7000D01*
X1700Y7200D02*
X1950Y7100D01*
X2625Y6525D02*
X2800Y6525D01*
X3150Y6800D01*
X3225Y7200D02*
X3950Y7175D01*
X2325Y7125D02*
X2425Y7475D01*
X2250Y7100D02*
X2325Y7125D01*
D02*
D12*
X2250Y6900D02*
X2425Y6800D01*
D02*
D14*
X2250Y6800D02*
X2425Y6700D01*
D02*
D12*
X2250Y6700D02*
X2375Y6625D01*
X2450Y6625D01*
X2800Y6925D01*
D02*
D14*
X2325Y7000D02*
X2425Y7025D01*
X1600Y6900D02*
X1775Y6900D01*
D02*
D13*
X1300Y7200D02*
X1500Y6900D01*
D02*
D14*
X2425Y7025D02*
X2625Y7075D01*
X3175Y7075D02*
X3950Y6975D01*
X3025Y7200D02*
X3175Y7075D01*
D02*
D13*
X10100Y6290D02*
X10925Y6290D01*
X9595Y6290D02*
X10100Y6290D01*
D02*
D12*
X9575Y6325D02*
X11425Y6325D01*
X11475Y6275D01*
X8975Y6200D02*
X9150Y6200D01*
X9350Y6200D01*
X9575Y6325D01*
D02*
D13*
X6400Y6290D02*
X7225Y6290D01*
X5895Y6290D02*
X6400Y6290D01*
D02*
D12*
X5875Y6325D02*
X7725Y6325D01*
X7775Y6275D01*
X5275Y6200D02*
X5450Y6200D01*
X5650Y6200D01*
X5875Y6325D01*
D02*
D13*
X2700Y6290D02*
X3525Y6290D01*
X2195Y6290D02*
X2700Y6290D01*
D02*
D12*
X2175Y6325D02*
X4025Y6325D01*
X4075Y6275D01*
X1575Y6200D02*
X1750Y6200D01*
X1950Y6200D01*
X2175Y6325D01*
X9650Y5600D02*
X9950Y5675D01*
X9825Y5800D01*
X10800Y5200D02*
X10875Y5150D01*
X10400Y5225D02*
X10800Y5200D01*
D02*
D14*
X10550Y5300D02*
X10850Y5275D01*
D02*
D12*
X11075Y5300D02*
X11075Y5550D01*
X11075Y5300D02*
X11100Y5275D01*
X11075Y5550D02*
X11150Y5600D01*
X11025Y5200D02*
X11300Y5200D01*
X10925Y5450D02*
X11025Y5200D01*
X10850Y5500D02*
X10925Y5450D01*
X11300Y5200D02*
X11325Y5225D01*
X11150Y5700D02*
X11225Y5625D01*
X11225Y5300D01*
X11200Y5275D01*
X8975Y5725D02*
X9125Y5875D01*
X9175Y5875D02*
X9350Y5700D01*
X8975Y5475D02*
X8975Y5725D01*
D02*
D14*
X9225Y5425D02*
X9300Y5525D01*
X9175Y5375D02*
X9225Y5425D01*
X8925Y5375D02*
X9175Y5375D01*
X8800Y5475D02*
X8925Y5375D01*
X9250Y5575D02*
X9250Y5725D01*
X9150Y5800D01*
X9250Y5575D02*
X9300Y5525D01*
X9900Y5575D02*
X10075Y5575D01*
X10425Y5600D01*
X9875Y5375D02*
X10000Y5450D01*
X9775Y5375D02*
X9875Y5375D01*
X9700Y5450D02*
X9775Y5375D01*
X9600Y5450D02*
X9700Y5450D01*
X9350Y5375D02*
X9600Y5450D01*
X9250Y5325D02*
X9350Y5375D01*
D02*
D13*
X10040Y5515D02*
X10225Y5450D01*
X9960Y5515D02*
X10040Y5515D01*
X9825Y5450D02*
X9960Y5515D01*
D02*
D14*
X8700Y5375D02*
X8700Y5800D01*
X8700Y5375D02*
X9050Y5175D01*
X9700Y5525D02*
X9900Y5575D01*
X9300Y5525D02*
X9700Y5525D01*
D02*
D12*
X10100Y5225D02*
X10400Y5225D01*
D02*
D14*
X10225Y5350D02*
X10550Y5300D01*
D02*
D13*
X10925Y6290D02*
X11075Y5850D01*
X10100Y5925D02*
X10100Y6290D01*
X9425Y6050D02*
X9595Y6290D01*
D02*
D14*
X10550Y6000D02*
X10675Y6225D01*
D02*
D12*
X9125Y5875D02*
X9175Y5875D01*
X8800Y6200D02*
X8925Y6100D01*
X9350Y6100D01*
X9575Y5850D02*
X9575Y5950D01*
X9575Y5850D02*
X9650Y5800D01*
D02*
D14*
X8700Y5800D02*
X8800Y5800D01*
X9850Y5900D02*
X10000Y5800D01*
X9650Y5900D02*
X9850Y5900D01*
X8150Y6000D02*
X8700Y5800D01*
D02*
D12*
X9575Y5950D02*
X9700Y5950D01*
X10000Y6200D01*
D02*
D13*
X9350Y6000D02*
X9425Y6050D01*
X10100Y5925D02*
X10225Y5925D01*
D02*
D14*
X10550Y6000D02*
X10850Y6000D01*
D02*
D13*
X11075Y5850D02*
X11150Y5800D01*
D02*
D12*
X5950Y5600D02*
X6250Y5675D01*
X6125Y5800D01*
X7100Y5200D02*
X7175Y5150D01*
X6700Y5225D02*
X7100Y5200D01*
D02*
D14*
X6850Y5300D02*
X7150Y5275D01*
D02*
D12*
X7375Y5300D02*
X7375Y5550D01*
X7375Y5300D02*
X7400Y5275D01*
X7375Y5550D02*
X7450Y5600D01*
X7325Y5200D02*
X7600Y5200D01*
X7225Y5450D02*
X7325Y5200D01*
X7150Y5500D02*
X7225Y5450D01*
X7600Y5200D02*
X7625Y5225D01*
X7450Y5700D02*
X7525Y5625D01*
X7525Y5300D01*
X7500Y5275D01*
X5275Y5725D02*
X5425Y5875D01*
X5475Y5875D02*
X5650Y5700D01*
X5275Y5475D02*
X5275Y5725D01*
D02*
D14*
X5525Y5425D02*
X5600Y5525D01*
X5475Y5375D02*
X5525Y5425D01*
X5225Y5375D02*
X5475Y5375D01*
X5100Y5475D02*
X5225Y5375D01*
X5550Y5575D02*
X5550Y5725D01*
X5450Y5800D01*
X5550Y5575D02*
X5600Y5525D01*
X6200Y5575D02*
X6375Y5575D01*
X6725Y5600D01*
X6175Y5375D02*
X6300Y5450D01*
X6075Y5375D02*
X6175Y5375D01*
X6000Y5450D02*
X6075Y5375D01*
X5900Y5450D02*
X6000Y5450D01*
X5650Y5375D02*
X5900Y5450D01*
X5550Y5325D02*
X5650Y5375D01*
D02*
D13*
X6340Y5515D02*
X6525Y5450D01*
X6260Y5515D02*
X6340Y5515D01*
X6125Y5450D02*
X6260Y5515D01*
D02*
D14*
X5000Y5375D02*
X5000Y5800D01*
X5000Y5375D02*
X5350Y5175D01*
X6000Y5525D02*
X6200Y5575D01*
X5600Y5525D02*
X6000Y5525D01*
D02*
D12*
X6400Y5225D02*
X6700Y5225D01*
D02*
D14*
X6525Y5350D02*
X6850Y5300D01*
D02*
D13*
X7225Y6290D02*
X7375Y5850D01*
X6400Y5925D02*
X6400Y6290D01*
X5725Y6050D02*
X5895Y6290D01*
D02*
D14*
X6850Y6000D02*
X6975Y6225D01*
D02*
D12*
X5425Y5875D02*
X5475Y5875D01*
X5100Y6200D02*
X5225Y6100D01*
X5650Y6100D01*
X5875Y5850D02*
X5875Y5950D01*
X5875Y5850D02*
X5950Y5800D01*
D02*
D14*
X5000Y5800D02*
X5100Y5800D01*
X6150Y5900D02*
X6300Y5800D01*
X5950Y5900D02*
X6150Y5900D01*
X4450Y6000D02*
X5000Y5800D01*
D02*
D12*
X5875Y5950D02*
X6000Y5950D01*
X6300Y6200D01*
D02*
D13*
X5650Y6000D02*
X5725Y6050D01*
X6400Y5925D02*
X6525Y5925D01*
D02*
D14*
X6850Y6000D02*
X7150Y6000D01*
D02*
D13*
X7375Y5850D02*
X7450Y5800D01*
D02*
D12*
X2250Y5600D02*
X2550Y5675D01*
X2425Y5800D01*
X3400Y5200D02*
X3475Y5150D01*
X3000Y5225D02*
X3400Y5200D01*
D02*
D14*
X3150Y5300D02*
X3450Y5275D01*
D02*
D12*
X3675Y5300D02*
X3675Y5550D01*
X3675Y5300D02*
X3700Y5275D01*
X3675Y5550D02*
X3750Y5600D01*
X3625Y5200D02*
X3900Y5200D01*
X3525Y5450D02*
X3625Y5200D01*
X3450Y5500D02*
X3525Y5450D01*
X3900Y5200D02*
X3925Y5225D01*
X3750Y5700D02*
X3825Y5625D01*
X3825Y5300D01*
X3800Y5275D01*
X1575Y5725D02*
X1725Y5875D01*
X1775Y5875D02*
X1950Y5700D01*
X1575Y5475D02*
X1575Y5725D01*
D02*
D14*
X1825Y5425D02*
X1900Y5525D01*
X1775Y5375D02*
X1825Y5425D01*
X1525Y5375D02*
X1775Y5375D01*
X1400Y5475D02*
X1525Y5375D01*
X1850Y5575D02*
X1850Y5725D01*
X1750Y5800D01*
X1850Y5575D02*
X1900Y5525D01*
X2500Y5575D02*
X2675Y5575D01*
X3025Y5600D01*
X2475Y5375D02*
X2600Y5450D01*
X2375Y5375D02*
X2475Y5375D01*
X2300Y5450D02*
X2375Y5375D01*
X2200Y5450D02*
X2300Y5450D01*
X1950Y5375D02*
X2200Y5450D01*
X1850Y5325D02*
X1950Y5375D01*
D02*
D13*
X2640Y5515D02*
X2825Y5450D01*
X2560Y5515D02*
X2640Y5515D01*
X2425Y5450D02*
X2560Y5515D01*
D02*
D14*
X1300Y5375D02*
X1300Y5800D01*
X1300Y5375D02*
X1650Y5175D01*
X2300Y5525D02*
X2500Y5575D01*
X1900Y5525D02*
X2300Y5525D01*
D02*
D12*
X2700Y5225D02*
X3000Y5225D01*
D02*
D14*
X2825Y5350D02*
X3150Y5300D01*
D02*
D13*
X3525Y6290D02*
X3675Y5850D01*
X2700Y5925D02*
X2700Y6290D01*
X2025Y6050D02*
X2195Y6290D01*
D02*
D14*
X3150Y6000D02*
X3275Y6225D01*
D02*
D12*
X1725Y5875D02*
X1775Y5875D01*
X1400Y6200D02*
X1525Y6100D01*
X1950Y6100D01*
X2175Y5850D02*
X2175Y5950D01*
X2175Y5850D02*
X2250Y5800D01*
D02*
D14*
X1300Y5800D02*
X1400Y5800D01*
X2450Y5900D02*
X2600Y5800D01*
X2250Y5900D02*
X2450Y5900D01*
X750Y6000D02*
X1300Y5800D01*
D02*
D12*
X2175Y5950D02*
X2300Y5950D01*
X2600Y6200D01*
D02*
D13*
X1950Y6000D02*
X2025Y6050D01*
X2700Y5925D02*
X2825Y5925D01*
D02*
D14*
X3150Y6000D02*
X3450Y6000D01*
D02*
D13*
X3675Y5850D02*
X3750Y5800D01*
D02*
D14*
X10150Y4400D02*
X10425Y4400D01*
X10025Y4275D02*
X10150Y4400D01*
X9575Y4200D02*
X9650Y4200D01*
X9450Y4575D02*
X9575Y4200D01*
X9650Y4200D02*
X9725Y4200D01*
D02*
D12*
X9550Y4675D02*
X9650Y4675D01*
X9425Y4875D02*
X9550Y4675D01*
X9575Y4450D02*
X9650Y4400D01*
X9525Y4625D02*
X9575Y4450D01*
X9400Y4825D02*
X9525Y4625D01*
D02*
D14*
X10550Y4700D02*
X10725Y5000D01*
X8725Y4850D02*
X9100Y4400D01*
X9350Y4300D01*
X10625Y4400D02*
X11350Y4375D01*
X9275Y4600D02*
X9450Y4575D01*
X9075Y4825D02*
X9275Y4600D01*
X9725Y4325D02*
X9825Y4675D01*
X9650Y4300D02*
X9725Y4325D01*
X9825Y4675D02*
X9825Y4925D01*
X9725Y4200D02*
X9825Y4225D01*
D02*
D13*
X8550Y5025D02*
X8700Y4400D01*
D02*
D14*
X9825Y4225D02*
X10025Y4275D01*
X10975Y4575D02*
X11350Y4575D01*
X10975Y4575D02*
X10975Y4950D01*
X10975Y4575D01*
X10300Y4575D01*
X10200Y4675D01*
X10575Y4275D02*
X11350Y4175D01*
X10425Y4400D02*
X10575Y4275D01*
D02*
D12*
X10875Y4975D02*
X10875Y5150D01*
D02*
D14*
X10850Y5275D02*
X11000Y5125D01*
X11425Y5125D01*
X11425Y5225D01*
D02*
D12*
X11475Y4950D02*
X11475Y6275D01*
D02*
D14*
X9225Y5000D02*
X9250Y5325D01*
D02*
D13*
X8550Y5025D02*
X8550Y5125D01*
X8625Y5475D01*
D02*
D12*
X8825Y4900D02*
X8975Y5075D01*
X9350Y4875D02*
X9425Y4875D01*
X9275Y4825D02*
X9400Y4825D01*
X9175Y4900D02*
X9275Y4825D01*
D02*
D14*
X10725Y5000D02*
X10800Y5000D01*
X9050Y5175D02*
X9150Y5075D01*
X8700Y5375D02*
X8725Y4850D01*
X9475Y5100D02*
X9650Y5175D01*
X9475Y5100D02*
X9550Y4900D01*
X9650Y4875D01*
X9350Y5175D02*
X9475Y5100D01*
X9000Y4850D02*
X9075Y4825D01*
X9100Y5000D02*
X9225Y5000D01*
X9000Y4850D02*
X9100Y5000D01*
D02*
D12*
X10800Y4900D02*
X10875Y4975D01*
D02*
D14*
X10675Y5100D02*
X10800Y5100D01*
D02*
D12*
X9750Y5075D02*
X9800Y5125D01*
X9725Y4825D02*
X9750Y5075D01*
X9650Y4775D02*
X9725Y4825D01*
X11325Y5025D02*
X11400Y4950D01*
X11475Y4950D01*
X11375Y4900D02*
X11425Y4825D01*
X11100Y4875D02*
X11150Y4800D01*
X11225Y4900D02*
X11375Y4900D01*
X11200Y4875D02*
X11225Y4900D01*
X11150Y4800D02*
X11300Y4800D01*
X11325Y4825D01*
D02*
D14*
X9825Y4925D02*
X9925Y4875D01*
D02*
D12*
X9800Y5125D02*
X10100Y5225D01*
D02*
D14*
X10400Y4775D02*
X10675Y5100D01*
X10100Y4775D02*
X10400Y4775D01*
X9925Y4875D02*
X10100Y4775D01*
X6450Y4400D02*
X6725Y4400D01*
X6325Y4275D02*
X6450Y4400D01*
X5875Y4200D02*
X5950Y4200D01*
X5750Y4575D02*
X5875Y4200D01*
X5950Y4200D02*
X6025Y4200D01*
D02*
D12*
X5850Y4675D02*
X5950Y4675D01*
X5725Y4875D02*
X5850Y4675D01*
X5875Y4450D02*
X5950Y4400D01*
X5825Y4625D02*
X5875Y4450D01*
X5700Y4825D02*
X5825Y4625D01*
D02*
D14*
X6850Y4700D02*
X7025Y5000D01*
X5025Y4850D02*
X5400Y4400D01*
X5650Y4300D01*
X6925Y4400D02*
X7650Y4375D01*
X5575Y4600D02*
X5750Y4575D01*
X5375Y4825D02*
X5575Y4600D01*
X6025Y4325D02*
X6125Y4675D01*
X5950Y4300D02*
X6025Y4325D01*
X6125Y4675D02*
X6125Y4925D01*
X6025Y4200D02*
X6125Y4225D01*
D02*
D13*
X4850Y5025D02*
X5000Y4400D01*
D02*
D14*
X6125Y4225D02*
X6325Y4275D01*
X7275Y4575D02*
X7650Y4575D01*
X7275Y4575D02*
X7275Y4950D01*
X7275Y4575D01*
X6600Y4575D01*
X6500Y4675D01*
X6875Y4275D02*
X7650Y4175D01*
X6725Y4400D02*
X6875Y4275D01*
D02*
D12*
X7175Y4975D02*
X7175Y5150D01*
D02*
D14*
X7150Y5275D02*
X7300Y5125D01*
X7725Y5125D01*
X7725Y5225D01*
D02*
D12*
X7775Y4950D02*
X7775Y6275D01*
D02*
D14*
X5525Y5000D02*
X5550Y5325D01*
D02*
D13*
X4850Y5025D02*
X4850Y5125D01*
X4925Y5475D01*
D02*
D12*
X5125Y4900D02*
X5275Y5075D01*
X5650Y4875D02*
X5725Y4875D01*
X5575Y4825D02*
X5700Y4825D01*
X5475Y4900D02*
X5575Y4825D01*
D02*
D14*
X7025Y5000D02*
X7100Y5000D01*
X5350Y5175D02*
X5450Y5075D01*
X5000Y5375D02*
X5025Y4850D01*
X5775Y5100D02*
X5950Y5175D01*
X5775Y5100D02*
X5850Y4900D01*
X5950Y4875D01*
X5650Y5175D02*
X5775Y5100D01*
X5300Y4850D02*
X5375Y4825D01*
X5400Y5000D02*
X5525Y5000D01*
X5300Y4850D02*
X5400Y5000D01*
D02*
D12*
X7100Y4900D02*
X7175Y4975D01*
D02*
D14*
X6975Y5100D02*
X7100Y5100D01*
D02*
D12*
X6050Y5075D02*
X6100Y5125D01*
X6025Y4825D02*
X6050Y5075D01*
X5950Y4775D02*
X6025Y4825D01*
X7625Y5025D02*
X7700Y4950D01*
X7775Y4950D01*
X7675Y4900D02*
X7725Y4825D01*
X7400Y4875D02*
X7450Y4800D01*
X7525Y4900D02*
X7675Y4900D01*
X7500Y4875D02*
X7525Y4900D01*
X7450Y4800D02*
X7600Y4800D01*
X7625Y4825D01*
D02*
D14*
X6125Y4925D02*
X6225Y4875D01*
D02*
D12*
X6100Y5125D02*
X6400Y5225D01*
D02*
D14*
X6700Y4775D02*
X6975Y5100D01*
X6400Y4775D02*
X6700Y4775D01*
X6225Y4875D02*
X6400Y4775D01*
X2750Y4400D02*
X3025Y4400D01*
X2625Y4275D02*
X2750Y4400D01*
X2175Y4200D02*
X2250Y4200D01*
X2050Y4575D02*
X2175Y4200D01*
X2250Y4200D02*
X2325Y4200D01*
D02*
D12*
X2150Y4675D02*
X2250Y4675D01*
X2025Y4875D02*
X2150Y4675D01*
X2175Y4450D02*
X2250Y4400D01*
X2125Y4625D02*
X2175Y4450D01*
X2000Y4825D02*
X2125Y4625D01*
D02*
D14*
X3150Y4700D02*
X3325Y5000D01*
X1325Y4850D02*
X1700Y4400D01*
X1950Y4300D01*
X3225Y4400D02*
X3950Y4375D01*
X1875Y4600D02*
X2050Y4575D01*
X1675Y4825D02*
X1875Y4600D01*
X2325Y4325D02*
X2425Y4675D01*
X2250Y4300D02*
X2325Y4325D01*
X2425Y4675D02*
X2425Y4925D01*
X2325Y4200D02*
X2425Y4225D01*
D02*
D13*
X1150Y5025D02*
X1300Y4400D01*
D02*
D14*
X2425Y4225D02*
X2625Y4275D01*
X3575Y4575D02*
X3950Y4575D01*
X3575Y4575D02*
X3575Y4950D01*
X3575Y4575D01*
X2900Y4575D01*
X2800Y4675D01*
X3175Y4275D02*
X3950Y4175D01*
X3025Y4400D02*
X3175Y4275D01*
D02*
D12*
X3475Y4975D02*
X3475Y5150D01*
D02*
D14*
X3450Y5275D02*
X3600Y5125D01*
X4025Y5125D01*
X4025Y5225D01*
D02*
D12*
X4075Y4950D02*
X4075Y6275D01*
D02*
D14*
X1825Y5000D02*
X1850Y5325D01*
D02*
D13*
X1150Y5025D02*
X1150Y5125D01*
X1225Y5475D01*
D02*
D12*
X1425Y4900D02*
X1575Y5075D01*
X1950Y4875D02*
X2025Y4875D01*
X1875Y4825D02*
X2000Y4825D01*
X1775Y4900D02*
X1875Y4825D01*
D02*
D14*
X3325Y5000D02*
X3400Y5000D01*
X1650Y5175D02*
X1750Y5075D01*
X1300Y5375D02*
X1325Y4850D01*
X2075Y5100D02*
X2250Y5175D01*
X2075Y5100D02*
X2150Y4900D01*
X2250Y4875D01*
X1950Y5175D02*
X2075Y5100D01*
X1600Y4850D02*
X1675Y4825D01*
X1700Y5000D02*
X1825Y5000D01*
X1600Y4850D02*
X1700Y5000D01*
D02*
D12*
X3400Y4900D02*
X3475Y4975D01*
D02*
D14*
X3275Y5100D02*
X3400Y5100D01*
D02*
D12*
X2350Y5075D02*
X2400Y5125D01*
X2325Y4825D02*
X2350Y5075D01*
X2250Y4775D02*
X2325Y4825D01*
X3925Y5025D02*
X4000Y4950D01*
X4075Y4950D01*
X3975Y4900D02*
X4025Y4825D01*
X3700Y4875D02*
X3750Y4800D01*
X3825Y4900D02*
X3975Y4900D01*
X3800Y4875D02*
X3825Y4900D01*
X3750Y4800D02*
X3900Y4800D01*
X3925Y4825D01*
D02*
D14*
X2425Y4925D02*
X2525Y4875D01*
D02*
D12*
X2400Y5125D02*
X2700Y5225D01*
D02*
D14*
X3000Y4775D02*
X3275Y5100D01*
X2700Y4775D02*
X3000Y4775D01*
X2525Y4875D02*
X2700Y4775D01*
X9175Y4100D02*
X9350Y4100D01*
X9575Y4200D01*
X10025Y3725D02*
X10200Y3725D01*
X10550Y4000D01*
D02*
D12*
X9650Y4100D02*
X9825Y4000D01*
D02*
D14*
X9650Y4000D02*
X9825Y3900D01*
D02*
D12*
X9650Y3900D02*
X9775Y3825D01*
X9850Y3825D01*
X10200Y4125D01*
D02*
D14*
X9000Y4100D02*
X9175Y4100D01*
D02*
D13*
X8700Y4400D02*
X8900Y4100D01*
D02*
D14*
X5475Y4100D02*
X5650Y4100D01*
X5875Y4200D01*
X6325Y3725D02*
X6500Y3725D01*
X6850Y4000D01*
D02*
D12*
X5950Y4100D02*
X6125Y4000D01*
D02*
D14*
X5950Y4000D02*
X6125Y3900D01*
D02*
D12*
X5950Y3900D02*
X6075Y3825D01*
X6150Y3825D01*
X6500Y4125D01*
D02*
D14*
X5300Y4100D02*
X5475Y4100D01*
D02*
D13*
X5000Y4400D02*
X5200Y4100D01*
D02*
D14*
X1775Y4100D02*
X1950Y4100D01*
X2175Y4200D01*
X2625Y3725D02*
X2800Y3725D01*
X3150Y4000D01*
D02*
D12*
X2250Y4100D02*
X2425Y4000D01*
D02*
D14*
X2250Y4000D02*
X2425Y3900D01*
D02*
D12*
X2250Y3900D02*
X2375Y3825D01*
X2450Y3825D01*
X2800Y4125D01*
D02*
D14*
X1600Y4100D02*
X1775Y4100D01*
D02*
D13*
X1300Y4400D02*
X1500Y4100D01*
X10100Y3490D02*
X10925Y3490D01*
X10100Y3125D02*
X10100Y3490D01*
X9595Y3490D01*
X9425Y3250D01*
D02*
D14*
X10550Y3200D02*
X10675Y3425D01*
D02*
D12*
X9575Y3525D02*
X11425Y3525D01*
X11475Y3475D01*
X8800Y3400D02*
X8925Y3300D01*
X9350Y3300D01*
X8975Y3400D02*
X9150Y3400D01*
X9350Y3400D01*
D02*
D14*
X9650Y3100D02*
X9850Y3100D01*
D02*
D12*
X9575Y3150D02*
X9700Y3150D01*
X10000Y3400D01*
D02*
D13*
X9350Y3200D02*
X9425Y3250D01*
D02*
D12*
X9350Y3400D02*
X9575Y3525D01*
D02*
D13*
X10100Y3125D02*
X10225Y3125D01*
D02*
D14*
X10550Y3200D02*
X10850Y3200D01*
D02*
D13*
X6400Y3490D02*
X7225Y3490D01*
X6400Y3125D02*
X6400Y3490D01*
X5895Y3490D01*
X5725Y3250D01*
D02*
D14*
X6850Y3200D02*
X6975Y3425D01*
D02*
D12*
X5875Y3525D02*
X7725Y3525D01*
X7775Y3475D01*
X5100Y3400D02*
X5225Y3300D01*
X5650Y3300D01*
X5275Y3400D02*
X5450Y3400D01*
X5650Y3400D01*
D02*
D14*
X5950Y3100D02*
X6150Y3100D01*
D02*
D12*
X5875Y3150D02*
X6000Y3150D01*
X6300Y3400D01*
D02*
D13*
X5650Y3200D02*
X5725Y3250D01*
D02*
D12*
X5650Y3400D02*
X5875Y3525D01*
D02*
D13*
X6400Y3125D02*
X6525Y3125D01*
D02*
D14*
X6850Y3200D02*
X7150Y3200D01*
D02*
D13*
X2700Y3490D02*
X3525Y3490D01*
X2700Y3125D02*
X2700Y3490D01*
X2195Y3490D01*
X2025Y3250D01*
D02*
D14*
X3150Y3200D02*
X3275Y3425D01*
D02*
D12*
X2175Y3525D02*
X4025Y3525D01*
X4075Y3475D01*
X1400Y3400D02*
X1525Y3300D01*
X1950Y3300D01*
X1575Y3400D02*
X1750Y3400D01*
X1950Y3400D01*
D02*
D14*
X2250Y3100D02*
X2450Y3100D01*
D02*
D12*
X2175Y3150D02*
X2300Y3150D01*
X2600Y3400D01*
D02*
D13*
X1950Y3200D02*
X2025Y3250D01*
D02*
D12*
X1950Y3400D02*
X2175Y3525D01*
D02*
D13*
X2700Y3125D02*
X2825Y3125D01*
D02*
D14*
X3150Y3200D02*
X3450Y3200D01*
D02*
D12*
X9650Y2800D02*
X9950Y2875D01*
X9825Y3000D01*
X10875Y2175D02*
X10875Y2350D01*
X10800Y2400D01*
X10400Y2425D01*
D02*
D14*
X10550Y2500D02*
X10850Y2475D01*
X11000Y2325D01*
X11425Y2325D01*
D02*
D12*
X11075Y2500D02*
X11075Y2750D01*
X11075Y2500D02*
X11100Y2475D01*
X11075Y2750D02*
X11150Y2800D01*
X11025Y2400D02*
X11300Y2400D01*
X10925Y2650D02*
X11025Y2400D01*
X10850Y2700D02*
X10925Y2650D01*
X11300Y2400D02*
X11325Y2425D01*
D02*
D14*
X11425Y2325D02*
X11425Y2425D01*
D02*
D12*
X11150Y2900D02*
X11225Y2825D01*
X11225Y2500D01*
X11200Y2475D01*
X11475Y2150D02*
X11475Y3475D01*
X8975Y2925D02*
X9125Y3075D01*
X9175Y3075D02*
X9350Y2900D01*
X8975Y2675D02*
X8975Y2925D01*
D02*
D14*
X9225Y2625D02*
X9300Y2725D01*
X9175Y2575D02*
X9225Y2625D01*
X8925Y2575D02*
X9175Y2575D01*
X8800Y2675D02*
X8925Y2575D01*
X9250Y2775D02*
X9250Y2925D01*
X9150Y3000D01*
X9250Y2775D02*
X9300Y2725D01*
X9900Y2775D02*
X10075Y2775D01*
X10425Y2800D01*
X9875Y2575D02*
X10000Y2650D01*
X9775Y2575D02*
X9875Y2575D01*
X9700Y2650D02*
X9775Y2575D01*
X9600Y2650D02*
X9700Y2650D01*
X9350Y2575D02*
X9600Y2650D01*
X9225Y2200D02*
X9250Y2525D01*
X9350Y2575D01*
D02*
D13*
X10040Y2715D02*
X10225Y2650D01*
X9960Y2715D02*
X10040Y2715D01*
X9825Y2650D02*
X9960Y2715D01*
X8550Y2225D02*
X8550Y2325D01*
X8625Y2675D01*
D02*
D12*
X8825Y2100D02*
X8975Y2275D01*
X9350Y2075D02*
X9425Y2075D01*
D02*
D14*
X10725Y2200D02*
X10800Y2200D01*
X8700Y2575D02*
X8700Y3000D01*
X8700Y2575D02*
X9050Y2375D01*
X9150Y2275D01*
X9475Y2300D02*
X9650Y2375D01*
X9475Y2300D02*
X9550Y2100D01*
X9650Y2075D01*
X9350Y2375D02*
X9475Y2300D01*
X9100Y2200D02*
X9225Y2200D01*
X9700Y2725D02*
X9900Y2775D01*
X9300Y2725D02*
X9700Y2725D01*
D02*
D12*
X10800Y2100D02*
X10875Y2175D01*
D02*
D14*
X10675Y2300D02*
X10800Y2300D01*
D02*
D12*
X9750Y2275D02*
X9800Y2325D01*
X11325Y2225D02*
X11400Y2150D01*
X11475Y2150D01*
X11225Y2100D02*
X11375Y2100D01*
X11200Y2075D02*
X11225Y2100D01*
D02*
D14*
X9825Y2125D02*
X9925Y2075D01*
D02*
D12*
X10100Y2425D02*
X10400Y2425D01*
X9800Y2325D02*
X10100Y2425D01*
D02*
D14*
X10225Y2550D02*
X10550Y2500D01*
D02*
D13*
X10925Y3490D02*
X11075Y3050D01*
D02*
D12*
X9125Y3075D02*
X9175Y3075D01*
X9575Y3050D02*
X9575Y3150D01*
X9575Y3050D02*
X9650Y3000D01*
D02*
D14*
X8700Y3000D02*
X8800Y3000D01*
X9850Y3100D02*
X10000Y3000D01*
X8150Y3200D02*
X8700Y3000D01*
D02*
D13*
X11075Y3050D02*
X11150Y3000D01*
D02*
D12*
X5950Y2800D02*
X6250Y2875D01*
X6125Y3000D01*
X7175Y2175D02*
X7175Y2350D01*
X7100Y2400D01*
X6700Y2425D01*
D02*
D14*
X6850Y2500D02*
X7150Y2475D01*
X7300Y2325D01*
X7725Y2325D01*
D02*
D12*
X7375Y2500D02*
X7375Y2750D01*
X7375Y2500D02*
X7400Y2475D01*
X7375Y2750D02*
X7450Y2800D01*
X7325Y2400D02*
X7600Y2400D01*
X7225Y2650D02*
X7325Y2400D01*
X7150Y2700D02*
X7225Y2650D01*
X7600Y2400D02*
X7625Y2425D01*
D02*
D14*
X7725Y2325D02*
X7725Y2425D01*
D02*
D12*
X7450Y2900D02*
X7525Y2825D01*
X7525Y2500D01*
X7500Y2475D01*
X7775Y2150D02*
X7775Y3475D01*
X5275Y2925D02*
X5425Y3075D01*
X5475Y3075D02*
X5650Y2900D01*
X5275Y2675D02*
X5275Y2925D01*
D02*
D14*
X5525Y2625D02*
X5600Y2725D01*
X5475Y2575D02*
X5525Y2625D01*
X5225Y2575D02*
X5475Y2575D01*
X5100Y2675D02*
X5225Y2575D01*
X5550Y2775D02*
X5550Y2925D01*
X5450Y3000D01*
X5550Y2775D02*
X5600Y2725D01*
X6200Y2775D02*
X6375Y2775D01*
X6725Y2800D01*
X6175Y2575D02*
X6300Y2650D01*
X6075Y2575D02*
X6175Y2575D01*
X6000Y2650D02*
X6075Y2575D01*
X5900Y2650D02*
X6000Y2650D01*
X5650Y2575D02*
X5900Y2650D01*
X5525Y2200D02*
X5550Y2525D01*
X5650Y2575D01*
D02*
D13*
X6340Y2715D02*
X6525Y2650D01*
X6260Y2715D02*
X6340Y2715D01*
X6125Y2650D02*
X6260Y2715D01*
X4850Y2225D02*
X4850Y2325D01*
X4925Y2675D01*
D02*
D12*
X5125Y2100D02*
X5275Y2275D01*
X5650Y2075D02*
X5725Y2075D01*
D02*
D14*
X7025Y2200D02*
X7100Y2200D01*
X5000Y2575D02*
X5000Y3000D01*
X5000Y2575D02*
X5350Y2375D01*
X5450Y2275D01*
X5775Y2300D02*
X5950Y2375D01*
X5775Y2300D02*
X5850Y2100D01*
X5950Y2075D01*
X5650Y2375D02*
X5775Y2300D01*
X5400Y2200D02*
X5525Y2200D01*
X6000Y2725D02*
X6200Y2775D01*
X5600Y2725D02*
X6000Y2725D01*
D02*
D12*
X7100Y2100D02*
X7175Y2175D01*
D02*
D14*
X6975Y2300D02*
X7100Y2300D01*
D02*
D12*
X6050Y2275D02*
X6100Y2325D01*
X7625Y2225D02*
X7700Y2150D01*
X7775Y2150D01*
X7525Y2100D02*
X7675Y2100D01*
X7500Y2075D02*
X7525Y2100D01*
D02*
D14*
X6125Y2125D02*
X6225Y2075D01*
D02*
D12*
X6400Y2425D02*
X6700Y2425D01*
X6100Y2325D02*
X6400Y2425D01*
D02*
D14*
X6525Y2550D02*
X6850Y2500D01*
D02*
D13*
X7225Y3490D02*
X7375Y3050D01*
D02*
D12*
X5425Y3075D02*
X5475Y3075D01*
X5875Y3050D02*
X5875Y3150D01*
X5875Y3050D02*
X5950Y3000D01*
D02*
D14*
X5000Y3000D02*
X5100Y3000D01*
X6150Y3100D02*
X6300Y3000D01*
X4450Y3200D02*
X5000Y3000D01*
D02*
D13*
X7375Y3050D02*
X7450Y3000D01*
D02*
D12*
X2250Y2800D02*
X2550Y2875D01*
X2425Y3000D01*
X3475Y2175D02*
X3475Y2350D01*
X3400Y2400D01*
X3000Y2425D01*
D02*
D14*
X3150Y2500D02*
X3450Y2475D01*
X3600Y2325D01*
X4025Y2325D01*
D02*
D12*
X3675Y2500D02*
X3675Y2750D01*
X3675Y2500D02*
X3700Y2475D01*
X3675Y2750D02*
X3750Y2800D01*
X3625Y2400D02*
X3900Y2400D01*
X3525Y2650D02*
X3625Y2400D01*
X3450Y2700D02*
X3525Y2650D01*
X3900Y2400D02*
X3925Y2425D01*
D02*
D14*
X4025Y2325D02*
X4025Y2425D01*
D02*
D12*
X3750Y2900D02*
X3825Y2825D01*
X3825Y2500D01*
X3800Y2475D01*
X4075Y2150D02*
X4075Y3475D01*
X1575Y2925D02*
X1725Y3075D01*
X1775Y3075D02*
X1950Y2900D01*
X1575Y2675D02*
X1575Y2925D01*
D02*
D14*
X1825Y2625D02*
X1900Y2725D01*
X1775Y2575D02*
X1825Y2625D01*
X1525Y2575D02*
X1775Y2575D01*
X1400Y2675D02*
X1525Y2575D01*
X1850Y2775D02*
X1850Y2925D01*
X1750Y3000D01*
X1850Y2775D02*
X1900Y2725D01*
X2500Y2775D02*
X2675Y2775D01*
X3025Y2800D01*
X2475Y2575D02*
X2600Y2650D01*
X2375Y2575D02*
X2475Y2575D01*
X2300Y2650D02*
X2375Y2575D01*
X2200Y2650D02*
X2300Y2650D01*
X1950Y2575D02*
X2200Y2650D01*
X1825Y2200D02*
X1850Y2525D01*
X1950Y2575D01*
D02*
D13*
X2640Y2715D02*
X2825Y2650D01*
X2560Y2715D02*
X2640Y2715D01*
X2425Y2650D02*
X2560Y2715D01*
X1150Y2225D02*
X1150Y2325D01*
X1225Y2675D01*
D02*
D12*
X1425Y2100D02*
X1575Y2275D01*
X1950Y2075D02*
X2025Y2075D01*
D02*
D14*
X3325Y2200D02*
X3400Y2200D01*
X1300Y2575D02*
X1300Y3000D01*
X1300Y2575D02*
X1650Y2375D01*
X1750Y2275D01*
X2075Y2300D02*
X2250Y2375D01*
X2075Y2300D02*
X2150Y2100D01*
X2250Y2075D01*
X1950Y2375D02*
X2075Y2300D01*
X1700Y2200D02*
X1825Y2200D01*
X2300Y2725D02*
X2500Y2775D01*
X1900Y2725D02*
X2300Y2725D01*
D02*
D12*
X3400Y2100D02*
X3475Y2175D01*
D02*
D14*
X3275Y2300D02*
X3400Y2300D01*
D02*
D12*
X2350Y2275D02*
X2400Y2325D01*
X3925Y2225D02*
X4000Y2150D01*
X4075Y2150D01*
X3825Y2100D02*
X3975Y2100D01*
X3800Y2075D02*
X3825Y2100D01*
D02*
D14*
X2425Y2125D02*
X2525Y2075D01*
D02*
D12*
X2700Y2425D02*
X3000Y2425D01*
X2400Y2325D02*
X2700Y2425D01*
D02*
D14*
X2825Y2550D02*
X3150Y2500D01*
D02*
D13*
X3525Y3490D02*
X3675Y3050D01*
D02*
D12*
X1725Y3075D02*
X1775Y3075D01*
X2175Y3050D02*
X2175Y3150D01*
X2175Y3050D02*
X2250Y3000D01*
D02*
D14*
X1300Y3000D02*
X1400Y3000D01*
X2450Y3100D02*
X2600Y3000D01*
X750Y3200D02*
X1300Y3000D01*
D02*
D13*
X3675Y3050D02*
X3750Y3000D01*
D02*
D14*
X10150Y1600D02*
X10425Y1600D01*
X10025Y1475D02*
X10150Y1600D01*
X9175Y1300D02*
X9350Y1300D01*
X9575Y1400D02*
X9650Y1400D01*
X9350Y1300D02*
X9575Y1400D01*
X9450Y1775D01*
X9650Y1400D02*
X9725Y1400D01*
D02*
D12*
X9550Y1875D02*
X9650Y1875D01*
X9425Y2075D02*
X9550Y1875D01*
X9575Y1650D02*
X9650Y1600D01*
X9525Y1825D02*
X9575Y1650D01*
X9400Y2025D02*
X9525Y1825D01*
D02*
D14*
X10550Y1900D02*
X10725Y2200D01*
X8725Y2050D02*
X9100Y1600D01*
X9350Y1500D01*
X10625Y1600D02*
X11350Y1575D01*
X9275Y1800D02*
X9450Y1775D01*
X9075Y2025D02*
X9275Y1800D01*
X9725Y1525D02*
X9825Y1875D01*
X9650Y1500D02*
X9725Y1525D01*
D02*
D12*
X9650Y1300D02*
X9825Y1200D01*
D02*
D14*
X9650Y1200D02*
X9825Y1100D01*
X9825Y1875D02*
X9825Y2125D01*
X9725Y1400D02*
X9825Y1425D01*
X9000Y1300D02*
X9175Y1300D01*
D02*
D13*
X8700Y1600D02*
X8900Y1300D01*
X8550Y2225D02*
X8700Y1600D01*
D02*
D14*
X9825Y1425D02*
X10025Y1475D01*
X10975Y1775D02*
X11350Y1775D01*
X10975Y1775D02*
X10975Y2150D01*
X10975Y1775D01*
X10300Y1775D01*
X10200Y1875D01*
X10575Y1475D02*
X11350Y1375D01*
X10425Y1600D02*
X10575Y1475D01*
D02*
D12*
X9275Y2025D02*
X9400Y2025D01*
X9175Y2100D02*
X9275Y2025D01*
D02*
D14*
X8700Y2575D02*
X8725Y2050D01*
X9000Y2050D02*
X9075Y2025D01*
X9000Y2050D02*
X9100Y2200D01*
D02*
D12*
X9725Y2025D02*
X9750Y2275D01*
X9650Y1975D02*
X9725Y2025D01*
X11375Y2100D02*
X11425Y2025D01*
X11100Y2075D02*
X11150Y2000D01*
X11300Y2000D01*
X11325Y2025D01*
D02*
D14*
X10400Y1975D02*
X10675Y2300D01*
X10100Y1975D02*
X10400Y1975D01*
X9925Y2075D02*
X10100Y1975D01*
X6450Y1600D02*
X6725Y1600D01*
X6325Y1475D02*
X6450Y1600D01*
X5475Y1300D02*
X5650Y1300D01*
X5875Y1400D02*
X5950Y1400D01*
X5650Y1300D02*
X5875Y1400D01*
X5750Y1775D01*
X5950Y1400D02*
X6025Y1400D01*
D02*
D12*
X5850Y1875D02*
X5950Y1875D01*
X5725Y2075D02*
X5850Y1875D01*
X5875Y1650D02*
X5950Y1600D01*
X5825Y1825D02*
X5875Y1650D01*
X5700Y2025D02*
X5825Y1825D01*
D02*
D14*
X6850Y1900D02*
X7025Y2200D01*
X5025Y2050D02*
X5400Y1600D01*
X5650Y1500D01*
X6925Y1600D02*
X7650Y1575D01*
X5575Y1800D02*
X5750Y1775D01*
X5375Y2025D02*
X5575Y1800D01*
X6025Y1525D02*
X6125Y1875D01*
X5950Y1500D02*
X6025Y1525D01*
D02*
D12*
X5950Y1300D02*
X6125Y1200D01*
D02*
D14*
X5950Y1200D02*
X6125Y1100D01*
X6125Y1875D02*
X6125Y2125D01*
X6025Y1400D02*
X6125Y1425D01*
X5300Y1300D02*
X5475Y1300D01*
D02*
D13*
X5000Y1600D02*
X5200Y1300D01*
X4850Y2225D02*
X5000Y1600D01*
D02*
D14*
X6125Y1425D02*
X6325Y1475D01*
X7275Y1775D02*
X7650Y1775D01*
X7275Y1775D02*
X7275Y2150D01*
X7275Y1775D01*
X6600Y1775D01*
X6500Y1875D01*
X6875Y1475D02*
X7650Y1375D01*
X6725Y1600D02*
X6875Y1475D01*
D02*
D12*
X5575Y2025D02*
X5700Y2025D01*
X5475Y2100D02*
X5575Y2025D01*
D02*
D14*
X5000Y2575D02*
X5025Y2050D01*
X5300Y2050D02*
X5375Y2025D01*
X5300Y2050D02*
X5400Y2200D01*
D02*
D12*
X6025Y2025D02*
X6050Y2275D01*
X5950Y1975D02*
X6025Y2025D01*
X7675Y2100D02*
X7725Y2025D01*
X7400Y2075D02*
X7450Y2000D01*
X7600Y2000D01*
X7625Y2025D01*
D02*
D14*
X6700Y1975D02*
X6975Y2300D01*
X6400Y1975D02*
X6700Y1975D01*
X6225Y2075D02*
X6400Y1975D01*
X2750Y1600D02*
X3025Y1600D01*
X2625Y1475D02*
X2750Y1600D01*
X1775Y1300D02*
X1950Y1300D01*
X2175Y1400D02*
X2250Y1400D01*
X1950Y1300D02*
X2175Y1400D01*
X2050Y1775D01*
X2250Y1400D02*
X2325Y1400D01*
D02*
D12*
X2150Y1875D02*
X2250Y1875D01*
X2025Y2075D02*
X2150Y1875D01*
X2175Y1650D02*
X2250Y1600D01*
X2125Y1825D02*
X2175Y1650D01*
X2000Y2025D02*
X2125Y1825D01*
D02*
D14*
X3150Y1900D02*
X3325Y2200D01*
X1325Y2050D02*
X1700Y1600D01*
X1950Y1500D01*
X3225Y1600D02*
X3950Y1575D01*
X1875Y1800D02*
X2050Y1775D01*
X1675Y2025D02*
X1875Y1800D01*
X2325Y1525D02*
X2425Y1875D01*
X2250Y1500D02*
X2325Y1525D01*
D02*
D12*
X2250Y1300D02*
X2425Y1200D01*
D02*
D14*
X2250Y1200D02*
X2425Y1100D01*
X2425Y1875D02*
X2425Y2125D01*
X2325Y1400D02*
X2425Y1425D01*
X1600Y1300D02*
X1775Y1300D01*
D02*
D13*
X1300Y1600D02*
X1500Y1300D01*
X1150Y2225D02*
X1300Y1600D01*
D02*
D14*
X2425Y1425D02*
X2625Y1475D01*
X3575Y1775D02*
X3950Y1775D01*
X3575Y1775D02*
X3575Y2150D01*
X3575Y1775D01*
X2900Y1775D01*
X2800Y1875D01*
X3175Y1475D02*
X3950Y1375D01*
X3025Y1600D02*
X3175Y1475D01*
D02*
D12*
X1875Y2025D02*
X2000Y2025D01*
X1775Y2100D02*
X1875Y2025D01*
D02*
D14*
X1300Y2575D02*
X1325Y2050D01*
X1600Y2050D02*
X1675Y2025D01*
X1600Y2050D02*
X1700Y2200D01*
D02*
D12*
X2325Y2025D02*
X2350Y2275D01*
X2250Y1975D02*
X2325Y2025D01*
X3975Y2100D02*
X4025Y2025D01*
X3700Y2075D02*
X3750Y2000D01*
X3900Y2000D01*
X3925Y2025D01*
D02*
D14*
X3000Y1975D02*
X3275Y2300D01*
X2700Y1975D02*
X3000Y1975D01*
X2525Y2075D02*
X2700Y1975D01*
X10025Y925D02*
X10200Y925D01*
X10550Y1200D01*
D02*
D12*
X9650Y1100D02*
X9775Y1025D01*
X9850Y1025D01*
X10200Y1325D01*
D02*
D14*
X6325Y925D02*
X6500Y925D01*
X6850Y1200D01*
D02*
D12*
X5950Y1100D02*
X6075Y1025D01*
X6150Y1025D01*
X6500Y1325D01*
D02*
D14*
X2625Y925D02*
X2800Y925D01*
X3150Y1200D01*
D02*
D12*
X2250Y1100D02*
X2375Y1025D01*
X2450Y1025D01*
X2800Y1325D01*
D02*
D11*
X9166Y662D02*
X9164Y666D01*
X9159Y671D01*
X9155Y673D01*
X9146Y673D01*
X9141Y671D01*
X9136Y666D01*
X9134Y662D01*
X9132Y655D01*
X9132Y643D01*
X9134Y636D01*
X9136Y632D01*
X9141Y627D01*
X9146Y625D01*
X9155Y625D01*
X9159Y627D01*
X9164Y632D01*
X9166Y636D01*
X9194Y673D02*
X9189Y671D01*
X9184Y666D01*
X9182Y662D01*
X9180Y655D01*
X9180Y643D01*
X9182Y636D01*
X9184Y632D01*
X9189Y627D01*
X9194Y625D01*
X9203Y625D01*
X9207Y627D01*
X9212Y632D01*
X9214Y636D01*
X9216Y643D01*
X9216Y655D01*
X9214Y662D01*
X9212Y666D01*
X9207Y671D01*
X9203Y673D01*
X9194Y673D01*
X9232Y625D02*
X9232Y673D01*
X9250Y625D01*
X9269Y673D01*
X9269Y625D01*
X9287Y625D02*
X9287Y673D01*
X9308Y673D01*
X9315Y671D01*
X9317Y668D01*
X9319Y664D01*
X9319Y657D01*
X9317Y652D01*
X9315Y650D01*
X9308Y648D01*
X9287Y648D01*
X9347Y673D02*
X9342Y671D01*
X9337Y666D01*
X9335Y662D01*
X9333Y655D01*
X9333Y643D01*
X9335Y636D01*
X9337Y632D01*
X9342Y627D01*
X9347Y625D01*
X9356Y625D01*
X9360Y627D01*
X9365Y632D01*
X9367Y636D01*
X9369Y643D01*
X9369Y655D01*
X9367Y662D01*
X9365Y666D01*
X9360Y671D01*
X9356Y673D01*
X9347Y673D01*
X9385Y625D02*
X9385Y673D01*
X9417Y625D01*
X9417Y673D01*
X9435Y625D02*
X9435Y673D01*
X9465Y673D01*
X9435Y650D02*
X9453Y650D01*
X9435Y625D02*
X9465Y625D01*
X9478Y625D02*
X9478Y673D01*
X9510Y625D01*
X9510Y673D01*
X9537Y673D02*
X9537Y625D01*
X9521Y673D02*
X9553Y673D01*
X9625Y666D02*
X9620Y671D01*
X9613Y673D01*
X9604Y673D01*
X9597Y671D01*
X9593Y666D01*
X9593Y662D01*
X9595Y657D01*
X9597Y655D01*
X9602Y652D01*
X9616Y648D01*
X9620Y646D01*
X9623Y643D01*
X9625Y639D01*
X9625Y632D01*
X9620Y627D01*
X9613Y625D01*
X9604Y625D01*
X9597Y627D01*
X9593Y632D01*
X9641Y673D02*
X9641Y625D01*
X9659Y625D02*
X9659Y673D01*
X9675Y673D01*
X9682Y671D01*
X9687Y666D01*
X9689Y662D01*
X9691Y655D01*
X9691Y643D01*
X9689Y636D01*
X9687Y632D01*
X9682Y627D01*
X9675Y625D01*
X9659Y625D01*
X9707Y625D02*
X9707Y673D01*
X9737Y673D01*
X9707Y650D02*
X9725Y650D01*
X9707Y625D02*
X9737Y625D01*
X9752Y657D02*
X9750Y655D01*
X9752Y652D01*
X9755Y655D01*
X9752Y657D01*
X9752Y630D02*
X9750Y627D01*
X9752Y625D01*
X9755Y627D01*
X9752Y630D01*
X9833Y625D02*
X9833Y673D01*
X9854Y673D01*
X9861Y671D01*
X9863Y668D01*
X9865Y664D01*
X9865Y657D01*
X9863Y652D01*
X9861Y650D01*
X9854Y648D01*
X9833Y648D01*
X9874Y625D02*
X9893Y673D01*
X9911Y625D01*
X9881Y641D02*
X9904Y641D01*
X9922Y673D02*
X9922Y625D01*
X9950Y625D01*
X9973Y673D02*
X9968Y671D01*
X9963Y666D01*
X9961Y662D01*
X9959Y655D01*
X9959Y643D01*
X9961Y636D01*
X9963Y632D01*
X9968Y627D01*
X9973Y625D01*
X9982Y625D01*
X9986Y627D01*
X9991Y632D01*
X9993Y636D01*
X9995Y643D01*
X9995Y655D01*
X9993Y662D01*
X9991Y666D01*
X9986Y671D01*
X9982Y673D01*
X9973Y673D01*
X10011Y625D02*
X10011Y673D01*
X10029Y625D01*
X10048Y673D01*
X10048Y625D01*
X10066Y673D02*
X10066Y625D01*
X10084Y625D02*
X10084Y673D01*
X10116Y625D01*
X10116Y673D01*
X10146Y673D02*
X10141Y671D01*
X10136Y666D01*
X10134Y662D01*
X10132Y655D01*
X10132Y643D01*
X10134Y636D01*
X10136Y632D01*
X10141Y627D01*
X10146Y625D01*
X10155Y625D01*
X10159Y627D01*
X10164Y632D01*
X10166Y636D01*
X10168Y643D01*
X10168Y655D01*
X10166Y662D01*
X10164Y666D01*
X10159Y671D01*
X10155Y673D01*
X10146Y673D01*
X10186Y630D02*
X10184Y627D01*
X10186Y625D01*
X10189Y627D01*
X10186Y630D01*
X10216Y673D02*
X10216Y625D01*
X10200Y673D02*
X10232Y673D01*
X10256Y673D02*
X10251Y671D01*
X10246Y666D01*
X10244Y662D01*
X10242Y655D01*
X10242Y643D01*
X10244Y636D01*
X10246Y632D01*
X10251Y627D01*
X10256Y625D01*
X10265Y625D01*
X10269Y627D01*
X10274Y632D01*
X10276Y636D01*
X10278Y643D01*
X10278Y655D01*
X10276Y662D01*
X10274Y666D01*
X10269Y671D01*
X10265Y673D01*
X10256Y673D01*
X10294Y625D02*
X10294Y673D01*
X10315Y673D01*
X10322Y671D01*
X10324Y668D01*
X10326Y664D01*
X10326Y657D01*
X10324Y652D01*
X10322Y650D01*
X10315Y648D01*
X10294Y648D01*
D02*
D43*
X9950Y8475D03*
D02*
D23*
X10050Y8475D03*
X11425Y8225D03*
D02*
D43*
X11325Y8225D03*
D02*
D33*
X9350Y8400D03*
X9350Y8500D03*
X9650Y8400D03*
X9650Y8500D03*
D02*
D43*
X8625Y8275D03*
X8800Y8275D03*
X8975Y8275D03*
X9150Y8275D03*
D02*
D23*
X9150Y8475D03*
D02*
D43*
X9050Y8475D03*
X9825Y8250D03*
X10000Y8250D03*
X10225Y8250D03*
X10425Y8400D03*
D02*
D23*
X10625Y8400D03*
D02*
D43*
X11325Y8400D03*
D02*
D23*
X11425Y8400D03*
D02*
D33*
X10850Y8500D03*
X10850Y8400D03*
X10850Y8300D03*
X11150Y8300D03*
X11150Y8400D03*
X11150Y8500D03*
D02*
D23*
X11425Y8525D03*
D02*
D43*
X11325Y8525D03*
D02*
D23*
X10675Y9025D03*
D02*
D43*
X10275Y9025D03*
D02*
D42*
X10175Y8800D03*
D02*
D21*
X10225Y8725D03*
X10275Y8800D03*
D02*
D33*
X9650Y8800D03*
X9650Y8900D03*
X9350Y8800D03*
X9350Y8900D03*
X9650Y9000D03*
D02*
D53*
X9350Y9000D03*
D02*
D33*
X9650Y8700D03*
X9350Y8700D03*
X9350Y8600D03*
X9650Y8600D03*
D02*
D43*
X8800Y9000D03*
D02*
D23*
X8800Y8600D03*
X8975Y8600D03*
D02*
D43*
X8975Y9000D03*
X9150Y9000D03*
D02*
D23*
X9150Y8600D03*
D02*
D43*
X10000Y9000D03*
D02*
D23*
X10000Y8600D03*
D02*
D43*
X9825Y9000D03*
D02*
D23*
X9825Y8600D03*
D02*
D29*
X8150Y8800D03*
X10550Y8800D03*
D02*
D11*
X7906Y9150D02*
X7906Y9150D01*
X7904Y9154D01*
X7899Y9156D01*
X7895Y9154D01*
X7894Y9149D01*
X7895Y9145D01*
X7900Y9144D01*
X7904Y9145D01*
X7906Y9150D01*
X7896Y9150D01*
X7904Y9150D01*
X7900Y9154D02*
X7900Y9146D01*
X11506Y9150D02*
X11506Y9150D01*
X11504Y9154D01*
X11499Y9156D01*
X11495Y9154D01*
X11494Y9149D01*
X11495Y9145D01*
X11500Y9144D01*
X11504Y9145D01*
X11506Y9150D01*
X11496Y9150D01*
X11504Y9150D01*
X11500Y9154D02*
X11500Y9146D01*
D02*
D11*
X10788Y8650D02*
X10788Y8650D01*
X10787Y8660D01*
X10784Y8670D01*
X10779Y8680D01*
X10774Y8689D01*
X10766Y8697D01*
X10758Y8703D01*
X10748Y8708D01*
X10738Y8711D01*
X10727Y8712D01*
X10716Y8712D01*
X10706Y8710D01*
X10696Y8706D01*
X10687Y8700D01*
X10679Y8693D01*
X10672Y8685D01*
X10667Y8675D01*
X10664Y8665D01*
X10662Y8655D01*
X10662Y8644D01*
X10664Y8634D01*
X10667Y8624D01*
X10672Y8614D01*
X10679Y8606D01*
X10687Y8599D01*
X10696Y8593D01*
X10706Y8589D01*
X10716Y8587D01*
X10727Y8587D01*
X10738Y8588D01*
X10748Y8591D01*
X10758Y8596D01*
X10766Y8602D01*
X10774Y8610D01*
X10779Y8619D01*
X10784Y8629D01*
X10787Y8639D01*
X10788Y8650D01*
X10664Y8650D01*
X10786Y8650D01*
X10725Y8711D02*
X10725Y8589D01*
X11338Y8650D02*
X11338Y8650D01*
X11337Y8660D01*
X11334Y8670D01*
X11329Y8680D01*
X11324Y8689D01*
X11316Y8697D01*
X11308Y8703D01*
X11298Y8708D01*
X11288Y8711D01*
X11277Y8712D01*
X11266Y8712D01*
X11256Y8710D01*
X11246Y8706D01*
X11237Y8700D01*
X11229Y8693D01*
X11222Y8685D01*
X11217Y8675D01*
X11214Y8665D01*
X11212Y8655D01*
X11212Y8644D01*
X11214Y8634D01*
X11217Y8624D01*
X11222Y8614D01*
X11229Y8606D01*
X11237Y8599D01*
X11246Y8593D01*
X11256Y8589D01*
X11266Y8587D01*
X11277Y8587D01*
X11288Y8588D01*
X11298Y8591D01*
X11308Y8596D01*
X11316Y8602D01*
X11324Y8610D01*
X11329Y8619D01*
X11334Y8629D01*
X11337Y8639D01*
X11338Y8650D01*
X11214Y8650D01*
X11336Y8650D01*
X11275Y8711D02*
X11275Y8589D01*
D02*
D23*
X11350Y8825D03*
D02*
D43*
X11350Y9025D03*
D02*
D33*
X10850Y8900D03*
X11150Y8900D03*
D02*
D53*
X10850Y9000D03*
D02*
D33*
X11150Y9000D03*
X10850Y8800D03*
X10850Y8700D03*
X11150Y8700D03*
X11150Y8800D03*
X10850Y8600D03*
X11150Y8600D03*
D02*
D43*
X6250Y8475D03*
D02*
D23*
X6350Y8475D03*
X7725Y8225D03*
D02*
D43*
X7625Y8225D03*
D02*
D33*
X5650Y8400D03*
X5650Y8500D03*
X5950Y8400D03*
X5950Y8500D03*
D02*
D43*
X4925Y8275D03*
X5100Y8275D03*
X5275Y8275D03*
X5450Y8275D03*
D02*
D23*
X5450Y8475D03*
D02*
D43*
X5350Y8475D03*
X6125Y8250D03*
X6300Y8250D03*
X6525Y8250D03*
X6725Y8400D03*
D02*
D23*
X6925Y8400D03*
D02*
D43*
X7625Y8400D03*
D02*
D23*
X7725Y8400D03*
D02*
D33*
X7150Y8500D03*
X7150Y8400D03*
X7150Y8300D03*
X7450Y8300D03*
X7450Y8400D03*
X7450Y8500D03*
D02*
D23*
X7725Y8525D03*
D02*
D43*
X7625Y8525D03*
D02*
D23*
X6975Y9025D03*
D02*
D43*
X6575Y9025D03*
D02*
D42*
X6475Y8800D03*
D02*
D21*
X6525Y8725D03*
X6575Y8800D03*
D02*
D33*
X5950Y8800D03*
X5950Y8900D03*
X5650Y8800D03*
X5650Y8900D03*
X5950Y9000D03*
D02*
D53*
X5650Y9000D03*
D02*
D33*
X5950Y8700D03*
X5650Y8700D03*
X5650Y8600D03*
X5950Y8600D03*
D02*
D43*
X5100Y9000D03*
D02*
D23*
X5100Y8600D03*
X5275Y8600D03*
D02*
D43*
X5275Y9000D03*
X5450Y9000D03*
D02*
D23*
X5450Y8600D03*
D02*
D43*
X6300Y9000D03*
D02*
D23*
X6300Y8600D03*
D02*
D43*
X6125Y9000D03*
D02*
D23*
X6125Y8600D03*
D02*
D29*
X4450Y8800D03*
X6850Y8800D03*
D02*
D11*
X4206Y9150D02*
X4206Y9150D01*
X4204Y9154D01*
X4199Y9156D01*
X4195Y9154D01*
X4194Y9149D01*
X4195Y9145D01*
X4200Y9144D01*
X4204Y9145D01*
X4206Y9150D01*
X4196Y9150D01*
X4204Y9150D01*
X4200Y9154D02*
X4200Y9146D01*
X7806Y9150D02*
X7806Y9150D01*
X7804Y9154D01*
X7799Y9156D01*
X7795Y9154D01*
X7794Y9149D01*
X7795Y9145D01*
X7800Y9144D01*
X7804Y9145D01*
X7806Y9150D01*
X7796Y9150D01*
X7804Y9150D01*
X7800Y9154D02*
X7800Y9146D01*
D02*
D11*
X7088Y8650D02*
X7088Y8650D01*
X7087Y8660D01*
X7084Y8670D01*
X7079Y8680D01*
X7074Y8689D01*
X7066Y8697D01*
X7058Y8703D01*
X7048Y8708D01*
X7038Y8711D01*
X7027Y8712D01*
X7016Y8712D01*
X7006Y8710D01*
X6996Y8706D01*
X6987Y8700D01*
X6979Y8693D01*
X6972Y8685D01*
X6967Y8675D01*
X6964Y8665D01*
X6962Y8655D01*
X6962Y8644D01*
X6964Y8634D01*
X6967Y8624D01*
X6972Y8614D01*
X6979Y8606D01*
X6987Y8599D01*
X6996Y8593D01*
X7006Y8589D01*
X7016Y8587D01*
X7027Y8587D01*
X7038Y8588D01*
X7048Y8591D01*
X7058Y8596D01*
X7066Y8602D01*
X7074Y8610D01*
X7079Y8619D01*
X7084Y8629D01*
X7087Y8639D01*
X7088Y8650D01*
X6964Y8650D01*
X7086Y8650D01*
X7025Y8711D02*
X7025Y8589D01*
X7638Y8650D02*
X7638Y8650D01*
X7637Y8660D01*
X7634Y8670D01*
X7629Y8680D01*
X7624Y8689D01*
X7616Y8697D01*
X7608Y8703D01*
X7598Y8708D01*
X7588Y8711D01*
X7577Y8712D01*
X7566Y8712D01*
X7556Y8710D01*
X7546Y8706D01*
X7537Y8700D01*
X7529Y8693D01*
X7522Y8685D01*
X7517Y8675D01*
X7514Y8665D01*
X7512Y8655D01*
X7512Y8644D01*
X7514Y8634D01*
X7517Y8624D01*
X7522Y8614D01*
X7529Y8606D01*
X7537Y8599D01*
X7546Y8593D01*
X7556Y8589D01*
X7566Y8587D01*
X7577Y8587D01*
X7588Y8588D01*
X7598Y8591D01*
X7608Y8596D01*
X7616Y8602D01*
X7624Y8610D01*
X7629Y8619D01*
X7634Y8629D01*
X7637Y8639D01*
X7638Y8650D01*
X7514Y8650D01*
X7636Y8650D01*
X7575Y8711D02*
X7575Y8589D01*
D02*
D23*
X7650Y8825D03*
D02*
D43*
X7650Y9025D03*
D02*
D33*
X7150Y8900D03*
X7450Y8900D03*
D02*
D53*
X7150Y9000D03*
D02*
D33*
X7450Y9000D03*
X7150Y8800D03*
X7150Y8700D03*
X7450Y8700D03*
X7450Y8800D03*
X7150Y8600D03*
X7450Y8600D03*
D02*
D43*
X2550Y8475D03*
D02*
D23*
X2650Y8475D03*
X4025Y8225D03*
D02*
D43*
X3925Y8225D03*
D02*
D33*
X1950Y8400D03*
X1950Y8500D03*
X2250Y8400D03*
X2250Y8500D03*
D02*
D43*
X1225Y8275D03*
X1400Y8275D03*
X1575Y8275D03*
X1750Y8275D03*
D02*
D23*
X1750Y8475D03*
D02*
D43*
X1650Y8475D03*
X2425Y8250D03*
X2600Y8250D03*
X2825Y8250D03*
X3025Y8400D03*
D02*
D23*
X3225Y8400D03*
D02*
D43*
X3925Y8400D03*
D02*
D23*
X4025Y8400D03*
D02*
D33*
X3450Y8500D03*
X3450Y8400D03*
X3450Y8300D03*
X3750Y8300D03*
X3750Y8400D03*
X3750Y8500D03*
D02*
D23*
X4025Y8525D03*
D02*
D43*
X3925Y8525D03*
D02*
D23*
X3275Y9025D03*
D02*
D43*
X2875Y9025D03*
D02*
D42*
X2775Y8800D03*
D02*
D21*
X2825Y8725D03*
X2875Y8800D03*
D02*
D33*
X2250Y8800D03*
X2250Y8900D03*
X1950Y8800D03*
X1950Y8900D03*
X2250Y9000D03*
D02*
D53*
X1950Y9000D03*
D02*
D33*
X2250Y8700D03*
X1950Y8700D03*
X1950Y8600D03*
X2250Y8600D03*
D02*
D43*
X1400Y9000D03*
D02*
D23*
X1400Y8600D03*
X1575Y8600D03*
D02*
D43*
X1575Y9000D03*
X1750Y9000D03*
D02*
D23*
X1750Y8600D03*
D02*
D43*
X2600Y9000D03*
D02*
D23*
X2600Y8600D03*
D02*
D43*
X2425Y9000D03*
D02*
D23*
X2425Y8600D03*
D02*
D29*
X750Y8800D03*
X3150Y8800D03*
D02*
D11*
X506Y9150D02*
X506Y9150D01*
X504Y9154D01*
X499Y9156D01*
X495Y9154D01*
X494Y9149D01*
X495Y9145D01*
X500Y9144D01*
X504Y9145D01*
X506Y9150D01*
X496Y9150D01*
X504Y9150D01*
X500Y9154D02*
X500Y9146D01*
X4106Y9150D02*
X4106Y9150D01*
X4104Y9154D01*
X4099Y9156D01*
X4095Y9154D01*
X4094Y9149D01*
X4095Y9145D01*
X4100Y9144D01*
X4104Y9145D01*
X4106Y9150D01*
X4096Y9150D01*
X4104Y9150D01*
X4100Y9154D02*
X4100Y9146D01*
D02*
D11*
X3388Y8650D02*
X3388Y8650D01*
X3387Y8660D01*
X3384Y8670D01*
X3379Y8680D01*
X3374Y8689D01*
X3366Y8697D01*
X3358Y8703D01*
X3348Y8708D01*
X3338Y8711D01*
X3327Y8712D01*
X3316Y8712D01*
X3306Y8710D01*
X3296Y8706D01*
X3287Y8700D01*
X3279Y8693D01*
X3272Y8685D01*
X3267Y8675D01*
X3264Y8665D01*
X3262Y8655D01*
X3262Y8644D01*
X3264Y8634D01*
X3267Y8624D01*
X3272Y8614D01*
X3279Y8606D01*
X3287Y8599D01*
X3296Y8593D01*
X3306Y8589D01*
X3316Y8587D01*
X3327Y8587D01*
X3338Y8588D01*
X3348Y8591D01*
X3358Y8596D01*
X3366Y8602D01*
X3374Y8610D01*
X3379Y8619D01*
X3384Y8629D01*
X3387Y8639D01*
X3388Y8650D01*
X3264Y8650D01*
X3386Y8650D01*
X3325Y8711D02*
X3325Y8589D01*
X3938Y8650D02*
X3938Y8650D01*
X3937Y8660D01*
X3934Y8670D01*
X3929Y8680D01*
X3924Y8689D01*
X3916Y8697D01*
X3908Y8703D01*
X3898Y8708D01*
X3888Y8711D01*
X3877Y8712D01*
X3866Y8712D01*
X3856Y8710D01*
X3846Y8706D01*
X3837Y8700D01*
X3829Y8693D01*
X3822Y8685D01*
X3817Y8675D01*
X3814Y8665D01*
X3812Y8655D01*
X3812Y8644D01*
X3814Y8634D01*
X3817Y8624D01*
X3822Y8614D01*
X3829Y8606D01*
X3837Y8599D01*
X3846Y8593D01*
X3856Y8589D01*
X3866Y8587D01*
X3877Y8587D01*
X3888Y8588D01*
X3898Y8591D01*
X3908Y8596D01*
X3916Y8602D01*
X3924Y8610D01*
X3929Y8619D01*
X3934Y8629D01*
X3937Y8639D01*
X3938Y8650D01*
X3814Y8650D01*
X3936Y8650D01*
X3875Y8711D02*
X3875Y8589D01*
D02*
D23*
X3950Y8825D03*
D02*
D43*
X3950Y9025D03*
D02*
D33*
X3450Y8900D03*
X3750Y8900D03*
D02*
D53*
X3450Y9000D03*
D02*
D33*
X3750Y9000D03*
X3450Y8800D03*
X3450Y8700D03*
X3750Y8700D03*
X3750Y8800D03*
X3450Y8600D03*
X3750Y8600D03*
D02*
D11*
X680Y9350D02*
X680Y9350D01*
X677Y9361D01*
X671Y9371D01*
X661Y9377D01*
X649Y9380D01*
X638Y9377D01*
X628Y9371D01*
X622Y9361D01*
X620Y9349D01*
X622Y9338D01*
X628Y9328D01*
X638Y9322D01*
X650Y9320D01*
X661Y9322D01*
X671Y9328D01*
X677Y9338D01*
X680Y9350D01*
X710Y9350D01*
X709Y9360D01*
X706Y9371D01*
X701Y9380D01*
X695Y9389D01*
X687Y9396D01*
X678Y9402D01*
X668Y9407D01*
X658Y9409D01*
X647Y9409D01*
X636Y9408D01*
X626Y9405D01*
X616Y9400D01*
X608Y9393D01*
X601Y9385D01*
X595Y9376D01*
X592Y9365D01*
X590Y9355D01*
X590Y9344D01*
X592Y9334D01*
X595Y9323D01*
X601Y9314D01*
X608Y9306D01*
X616Y9299D01*
X626Y9294D01*
X636Y9291D01*
X647Y9290D01*
X658Y9290D01*
X668Y9292D01*
X678Y9297D01*
X687Y9303D01*
X695Y9310D01*
X701Y9319D01*
X706Y9328D01*
X709Y9339D01*
X710Y9350D01*
X740Y9350D01*
X739Y9360D01*
X737Y9370D01*
X734Y9380D01*
X730Y9390D01*
X725Y9399D01*
X718Y9407D01*
X711Y9415D01*
X703Y9422D01*
X694Y9427D01*
X685Y9432D01*
X675Y9436D01*
X665Y9438D01*
X655Y9439D01*
X644Y9439D01*
X634Y9438D01*
X624Y9436D01*
X614Y9432D01*
X604Y9427D01*
X596Y9422D01*
X588Y9415D01*
X581Y9407D01*
X574Y9399D01*
X569Y9390D01*
X565Y9380D01*
X562Y9370D01*
X560Y9360D01*
X560Y9349D01*
X560Y9339D01*
X562Y9329D01*
X565Y9319D01*
X569Y9309D01*
X574Y9300D01*
X581Y9292D01*
X588Y9284D01*
X596Y9277D01*
X605Y9272D01*
X614Y9267D01*
X624Y9263D01*
X634Y9261D01*
X644Y9260D01*
X655Y9260D01*
X665Y9261D01*
X675Y9263D01*
X685Y9267D01*
X695Y9272D01*
X703Y9277D01*
X711Y9284D01*
X718Y9292D01*
X725Y9300D01*
X730Y9309D01*
X734Y9319D01*
X737Y9329D01*
X739Y9339D01*
X740Y9350D01*
X770Y9350D01*
X769Y9360D01*
X768Y9370D01*
X766Y9380D01*
X762Y9390D01*
X759Y9400D01*
X754Y9409D01*
X748Y9418D01*
X742Y9426D01*
X735Y9433D01*
X728Y9440D01*
X720Y9447D01*
X711Y9453D01*
X702Y9457D01*
X692Y9462D01*
X683Y9465D01*
X673Y9467D01*
X662Y9469D01*
X652Y9469D01*
X642Y9469D01*
X631Y9468D01*
X621Y9466D01*
X611Y9463D01*
X602Y9460D01*
X593Y9455D01*
X584Y9450D01*
X575Y9444D01*
X567Y9437D01*
X560Y9430D01*
X554Y9422D01*
X548Y9413D01*
X543Y9404D01*
X538Y9395D01*
X535Y9385D01*
X532Y9375D01*
X530Y9365D01*
X530Y9355D01*
X530Y9344D01*
X530Y9334D01*
X532Y9324D01*
X535Y9314D01*
X538Y9304D01*
X543Y9295D01*
X548Y9286D01*
X554Y9277D01*
X560Y9269D01*
X567Y9262D01*
X575Y9255D01*
X584Y9249D01*
X593Y9244D01*
X602Y9239D01*
X611Y9236D01*
X621Y9233D01*
X631Y9231D01*
X642Y9230D01*
X652Y9230D01*
X662Y9230D01*
X673Y9232D01*
X683Y9234D01*
X692Y9237D01*
X702Y9242D01*
X711Y9246D01*
X720Y9252D01*
X728Y9259D01*
X735Y9266D01*
X742Y9273D01*
X748Y9281D01*
X754Y9290D01*
X759Y9299D01*
X762Y9309D01*
X766Y9319D01*
X768Y9329D01*
X769Y9339D01*
X770Y9350D01*
X500Y9350D01*
X800Y9350D01*
X650Y9500D02*
X650Y9200D01*
X11380Y9350D02*
X11380Y9350D01*
X11377Y9361D01*
X11371Y9371D01*
X11361Y9377D01*
X11349Y9380D01*
X11338Y9377D01*
X11328Y9371D01*
X11322Y9361D01*
X11320Y9349D01*
X11322Y9338D01*
X11328Y9328D01*
X11338Y9322D01*
X11350Y9320D01*
X11361Y9322D01*
X11371Y9328D01*
X11377Y9338D01*
X11380Y9350D01*
X11410Y9350D01*
X11409Y9360D01*
X11406Y9371D01*
X11401Y9380D01*
X11395Y9389D01*
X11387Y9396D01*
X11378Y9402D01*
X11368Y9407D01*
X11358Y9409D01*
X11347Y9409D01*
X11336Y9408D01*
X11326Y9405D01*
X11316Y9400D01*
X11308Y9393D01*
X11301Y9385D01*
X11295Y9376D01*
X11292Y9365D01*
X11290Y9355D01*
X11290Y9344D01*
X11292Y9334D01*
X11295Y9323D01*
X11301Y9314D01*
X11308Y9306D01*
X11316Y9299D01*
X11326Y9294D01*
X11336Y9291D01*
X11347Y9290D01*
X11358Y9290D01*
X11368Y9292D01*
X11378Y9297D01*
X11387Y9303D01*
X11395Y9310D01*
X11401Y9319D01*
X11406Y9328D01*
X11409Y9339D01*
X11410Y9350D01*
X11440Y9350D01*
X11439Y9360D01*
X11437Y9370D01*
X11434Y9380D01*
X11430Y9390D01*
X11425Y9399D01*
X11418Y9407D01*
X11411Y9415D01*
X11403Y9422D01*
X11394Y9427D01*
X11385Y9432D01*
X11375Y9436D01*
X11365Y9438D01*
X11355Y9439D01*
X11344Y9439D01*
X11334Y9438D01*
X11324Y9436D01*
X11314Y9432D01*
X11304Y9427D01*
X11296Y9422D01*
X11288Y9415D01*
X11281Y9407D01*
X11274Y9399D01*
X11269Y9390D01*
X11265Y9380D01*
X11262Y9370D01*
X11260Y9360D01*
X11260Y9349D01*
X11260Y9339D01*
X11262Y9329D01*
X11265Y9319D01*
X11269Y9309D01*
X11274Y9300D01*
X11281Y9292D01*
X11288Y9284D01*
X11296Y9277D01*
X11305Y9272D01*
X11314Y9267D01*
X11324Y9263D01*
X11334Y9261D01*
X11344Y9260D01*
X11355Y9260D01*
X11365Y9261D01*
X11375Y9263D01*
X11385Y9267D01*
X11395Y9272D01*
X11403Y9277D01*
X11411Y9284D01*
X11418Y9292D01*
X11425Y9300D01*
X11430Y9309D01*
X11434Y9319D01*
X11437Y9329D01*
X11439Y9339D01*
X11440Y9350D01*
X11470Y9350D01*
X11469Y9360D01*
X11468Y9370D01*
X11466Y9380D01*
X11462Y9390D01*
X11459Y9400D01*
X11454Y9409D01*
X11448Y9418D01*
X11442Y9426D01*
X11435Y9433D01*
X11428Y9440D01*
X11420Y9447D01*
X11411Y9453D01*
X11402Y9457D01*
X11392Y9462D01*
X11383Y9465D01*
X11373Y9467D01*
X11362Y9469D01*
X11352Y9469D01*
X11342Y9469D01*
X11331Y9468D01*
X11321Y9466D01*
X11311Y9463D01*
X11302Y9460D01*
X11293Y9455D01*
X11284Y9450D01*
X11275Y9444D01*
X11267Y9437D01*
X11260Y9430D01*
X11254Y9422D01*
X11248Y9413D01*
X11243Y9404D01*
X11238Y9395D01*
X11235Y9385D01*
X11232Y9375D01*
X11230Y9365D01*
X11230Y9355D01*
X11230Y9344D01*
X11230Y9334D01*
X11232Y9324D01*
X11235Y9314D01*
X11238Y9304D01*
X11243Y9295D01*
X11248Y9286D01*
X11254Y9277D01*
X11260Y9269D01*
X11267Y9262D01*
X11275Y9255D01*
X11284Y9249D01*
X11293Y9244D01*
X11302Y9239D01*
X11311Y9236D01*
X11321Y9233D01*
X11331Y9231D01*
X11342Y9230D01*
X11352Y9230D01*
X11362Y9230D01*
X11373Y9232D01*
X11383Y9234D01*
X11392Y9237D01*
X11402Y9242D01*
X11411Y9246D01*
X11420Y9252D01*
X11428Y9259D01*
X11435Y9266D01*
X11442Y9273D01*
X11448Y9281D01*
X11454Y9290D01*
X11459Y9299D01*
X11462Y9309D01*
X11466Y9319D01*
X11468Y9329D01*
X11469Y9339D01*
X11470Y9350D01*
X11200Y9350D01*
X11500Y9350D01*
X11350Y9500D02*
X11350Y9200D01*
D02*
D23*
X8825Y7300D03*
X9175Y7300D03*
D02*
D53*
X9350Y7300D03*
D02*
D33*
X9350Y7200D03*
X9650Y7300D03*
X9650Y7200D03*
X9350Y7475D03*
X9650Y7475D03*
D02*
D47*
X10550Y7500D03*
D02*
D23*
X10625Y7200D03*
D02*
D43*
X10425Y7200D03*
D02*
D27*
X11350Y7375D03*
D02*
D43*
X8700Y7200D03*
X10200Y7475D03*
X10025Y7475D03*
X11325Y8025D03*
D02*
D23*
X11425Y8025D03*
X11425Y7825D03*
D02*
D43*
X11325Y7825D03*
X11325Y7625D03*
D02*
D23*
X11425Y7625D03*
D02*
D43*
X9000Y7650D03*
D02*
D23*
X9000Y7550D03*
D02*
D43*
X8825Y7700D03*
X9175Y7700D03*
D02*
D33*
X9650Y7575D03*
X9650Y7675D03*
X9650Y7775D03*
X9650Y7875D03*
X9650Y7975D03*
X9650Y8075D03*
X9650Y8175D03*
X9350Y7575D03*
X9350Y7675D03*
X9350Y7775D03*
X9350Y7875D03*
X9350Y7975D03*
X9350Y8075D03*
D02*
D53*
X9350Y8175D03*
D02*
D23*
X8625Y7875D03*
X8800Y7875D03*
X8975Y7875D03*
X9150Y7875D03*
X9825Y7850D03*
X10000Y7850D03*
X10225Y8150D03*
D02*
D27*
X10550Y8100D03*
D02*
D24*
X10800Y7900D03*
X10800Y7800D03*
D02*
D44*
X10800Y7700D03*
D02*
D11*
X10412Y7800D02*
X10412Y7800D01*
X10411Y7810D01*
X10410Y7820D01*
X10409Y7830D01*
X10406Y7840D01*
X10403Y7850D01*
X10400Y7860D01*
X10396Y7869D01*
X10391Y7878D01*
X10386Y7887D01*
X10380Y7896D01*
X10374Y7904D01*
X10367Y7911D01*
X10359Y7919D01*
X10352Y7925D01*
X10343Y7931D01*
X10335Y7937D01*
X10326Y7942D01*
X10317Y7947D01*
X10307Y7951D01*
X10298Y7954D01*
X10288Y7957D01*
X10278Y7959D01*
X10267Y7961D01*
X10257Y7961D01*
X10247Y7961D01*
X10237Y7961D01*
X10226Y7960D01*
X10216Y7958D01*
X10206Y7956D01*
X10197Y7953D01*
X10187Y7949D01*
X10178Y7945D01*
X10168Y7940D01*
X10160Y7934D01*
X10151Y7928D01*
X10143Y7922D01*
X10136Y7915D01*
X10129Y7908D01*
X10122Y7900D01*
X10116Y7891D01*
X10111Y7883D01*
X10106Y7874D01*
X10101Y7864D01*
X10097Y7855D01*
X10094Y7845D01*
X10091Y7835D01*
X10090Y7825D01*
X10088Y7815D01*
X10088Y7805D01*
X10088Y7794D01*
X10088Y7784D01*
X10090Y7774D01*
X10091Y7764D01*
X10094Y7754D01*
X10097Y7744D01*
X10101Y7735D01*
X10106Y7725D01*
X10111Y7716D01*
X10116Y7708D01*
X10122Y7699D01*
X10129Y7691D01*
X10136Y7684D01*
X10143Y7677D01*
X10151Y7671D01*
X10160Y7665D01*
X10169Y7659D01*
X10178Y7654D01*
X10187Y7650D01*
X10197Y7646D01*
X10206Y7643D01*
X10216Y7641D01*
X10226Y7639D01*
X10237Y7638D01*
X10247Y7638D01*
X10257Y7638D01*
X10267Y7638D01*
X10278Y7640D01*
X10288Y7642D01*
X10298Y7645D01*
X10307Y7648D01*
X10317Y7652D01*
X10326Y7657D01*
X10335Y7662D01*
X10343Y7668D01*
X10352Y7674D01*
X10359Y7680D01*
X10367Y7688D01*
X10374Y7695D01*
X10380Y7703D01*
X10386Y7712D01*
X10391Y7721D01*
X10396Y7730D01*
X10400Y7739D01*
X10403Y7749D01*
X10406Y7759D01*
X10409Y7769D01*
X10410Y7779D01*
X10411Y7789D01*
X10412Y7800D01*
X10090Y7800D01*
X10410Y7800D01*
X10250Y7960D02*
X10250Y7640D01*
D02*
D43*
X11200Y8075D03*
D02*
D23*
X11200Y7675D03*
D02*
D43*
X11100Y8075D03*
D02*
D23*
X11100Y7675D03*
D02*
D27*
X9825Y7725D03*
D02*
D47*
X10975Y7750D03*
D02*
D33*
X10850Y8200D03*
X11150Y8200D03*
D02*
D23*
X5125Y7300D03*
X5475Y7300D03*
D02*
D53*
X5650Y7300D03*
D02*
D33*
X5650Y7200D03*
X5950Y7300D03*
X5950Y7200D03*
X5650Y7475D03*
X5950Y7475D03*
D02*
D47*
X6850Y7500D03*
D02*
D23*
X6925Y7200D03*
D02*
D43*
X6725Y7200D03*
D02*
D27*
X7650Y7375D03*
D02*
D43*
X5000Y7200D03*
X6500Y7475D03*
X6325Y7475D03*
X7625Y8025D03*
D02*
D23*
X7725Y8025D03*
X7725Y7825D03*
D02*
D43*
X7625Y7825D03*
X7625Y7625D03*
D02*
D23*
X7725Y7625D03*
D02*
D43*
X5300Y7650D03*
D02*
D23*
X5300Y7550D03*
D02*
D43*
X5125Y7700D03*
X5475Y7700D03*
D02*
D33*
X5950Y7575D03*
X5950Y7675D03*
X5950Y7775D03*
X5950Y7875D03*
X5950Y7975D03*
X5950Y8075D03*
X5950Y8175D03*
X5650Y7575D03*
X5650Y7675D03*
X5650Y7775D03*
X5650Y7875D03*
X5650Y7975D03*
X5650Y8075D03*
D02*
D53*
X5650Y8175D03*
D02*
D23*
X4925Y7875D03*
X5100Y7875D03*
X5275Y7875D03*
X5450Y7875D03*
X6125Y7850D03*
X6300Y7850D03*
X6525Y8150D03*
D02*
D27*
X6850Y8100D03*
D02*
D24*
X7100Y7900D03*
X7100Y7800D03*
D02*
D44*
X7100Y7700D03*
D02*
D11*
X6712Y7800D02*
X6712Y7800D01*
X6711Y7810D01*
X6710Y7820D01*
X6709Y7830D01*
X6706Y7840D01*
X6703Y7850D01*
X6700Y7860D01*
X6696Y7869D01*
X6691Y7878D01*
X6686Y7887D01*
X6680Y7896D01*
X6674Y7904D01*
X6667Y7911D01*
X6659Y7919D01*
X6652Y7925D01*
X6643Y7931D01*
X6635Y7937D01*
X6626Y7942D01*
X6617Y7947D01*
X6607Y7951D01*
X6598Y7954D01*
X6588Y7957D01*
X6578Y7959D01*
X6567Y7961D01*
X6557Y7961D01*
X6547Y7961D01*
X6537Y7961D01*
X6526Y7960D01*
X6516Y7958D01*
X6506Y7956D01*
X6497Y7953D01*
X6487Y7949D01*
X6478Y7945D01*
X6468Y7940D01*
X6460Y7934D01*
X6451Y7928D01*
X6443Y7922D01*
X6436Y7915D01*
X6429Y7908D01*
X6422Y7900D01*
X6416Y7891D01*
X6411Y7883D01*
X6406Y7874D01*
X6401Y7864D01*
X6397Y7855D01*
X6394Y7845D01*
X6391Y7835D01*
X6390Y7825D01*
X6388Y7815D01*
X6388Y7805D01*
X6388Y7794D01*
X6388Y7784D01*
X6390Y7774D01*
X6391Y7764D01*
X6394Y7754D01*
X6397Y7744D01*
X6401Y7735D01*
X6406Y7725D01*
X6411Y7716D01*
X6416Y7708D01*
X6422Y7699D01*
X6429Y7691D01*
X6436Y7684D01*
X6443Y7677D01*
X6451Y7671D01*
X6460Y7665D01*
X6469Y7659D01*
X6478Y7654D01*
X6487Y7650D01*
X6497Y7646D01*
X6506Y7643D01*
X6516Y7641D01*
X6526Y7639D01*
X6537Y7638D01*
X6547Y7638D01*
X6557Y7638D01*
X6567Y7638D01*
X6578Y7640D01*
X6588Y7642D01*
X6598Y7645D01*
X6607Y7648D01*
X6617Y7652D01*
X6626Y7657D01*
X6635Y7662D01*
X6643Y7668D01*
X6652Y7674D01*
X6659Y7680D01*
X6667Y7688D01*
X6674Y7695D01*
X6680Y7703D01*
X6686Y7712D01*
X6691Y7721D01*
X6696Y7730D01*
X6700Y7739D01*
X6703Y7749D01*
X6706Y7759D01*
X6709Y7769D01*
X6710Y7779D01*
X6711Y7789D01*
X6712Y7800D01*
X6390Y7800D01*
X6710Y7800D01*
X6550Y7960D02*
X6550Y7640D01*
D02*
D43*
X7500Y8075D03*
D02*
D23*
X7500Y7675D03*
D02*
D43*
X7400Y8075D03*
D02*
D23*
X7400Y7675D03*
D02*
D27*
X6125Y7725D03*
D02*
D47*
X7275Y7750D03*
D02*
D33*
X7150Y8200D03*
X7450Y8200D03*
D02*
D23*
X1425Y7300D03*
X1775Y7300D03*
D02*
D53*
X1950Y7300D03*
D02*
D33*
X1950Y7200D03*
X2250Y7300D03*
X2250Y7200D03*
X1950Y7475D03*
X2250Y7475D03*
D02*
D47*
X3150Y7500D03*
D02*
D23*
X3225Y7200D03*
D02*
D43*
X3025Y7200D03*
D02*
D27*
X3950Y7375D03*
D02*
D43*
X1300Y7200D03*
X2800Y7475D03*
X2625Y7475D03*
X3925Y8025D03*
D02*
D23*
X4025Y8025D03*
X4025Y7825D03*
D02*
D43*
X3925Y7825D03*
X3925Y7625D03*
D02*
D23*
X4025Y7625D03*
D02*
D43*
X1600Y7650D03*
D02*
D23*
X1600Y7550D03*
D02*
D43*
X1425Y7700D03*
X1775Y7700D03*
D02*
D33*
X2250Y7575D03*
X2250Y7675D03*
X2250Y7775D03*
X2250Y7875D03*
X2250Y7975D03*
X2250Y8075D03*
X2250Y8175D03*
X1950Y7575D03*
X1950Y7675D03*
X1950Y7775D03*
X1950Y7875D03*
X1950Y7975D03*
X1950Y8075D03*
D02*
D53*
X1950Y8175D03*
D02*
D23*
X1225Y7875D03*
X1400Y7875D03*
X1575Y7875D03*
X1750Y7875D03*
X2425Y7850D03*
X2600Y7850D03*
X2825Y8150D03*
D02*
D27*
X3150Y8100D03*
D02*
D24*
X3400Y7900D03*
X3400Y7800D03*
D02*
D44*
X3400Y7700D03*
D02*
D11*
X3012Y7800D02*
X3012Y7800D01*
X3011Y7810D01*
X3010Y7820D01*
X3009Y7830D01*
X3006Y7840D01*
X3003Y7850D01*
X3000Y7860D01*
X2996Y7869D01*
X2991Y7878D01*
X2986Y7887D01*
X2980Y7896D01*
X2974Y7904D01*
X2967Y7911D01*
X2959Y7919D01*
X2952Y7925D01*
X2943Y7931D01*
X2935Y7937D01*
X2926Y7942D01*
X2917Y7947D01*
X2907Y7951D01*
X2898Y7954D01*
X2888Y7957D01*
X2878Y7959D01*
X2867Y7961D01*
X2857Y7961D01*
X2847Y7961D01*
X2837Y7961D01*
X2826Y7960D01*
X2816Y7958D01*
X2806Y7956D01*
X2797Y7953D01*
X2787Y7949D01*
X2778Y7945D01*
X2768Y7940D01*
X2760Y7934D01*
X2751Y7928D01*
X2743Y7922D01*
X2736Y7915D01*
X2729Y7908D01*
X2722Y7900D01*
X2716Y7891D01*
X2711Y7883D01*
X2706Y7874D01*
X2701Y7864D01*
X2697Y7855D01*
X2694Y7845D01*
X2691Y7835D01*
X2690Y7825D01*
X2688Y7815D01*
X2688Y7805D01*
X2688Y7794D01*
X2688Y7784D01*
X2690Y7774D01*
X2691Y7764D01*
X2694Y7754D01*
X2697Y7744D01*
X2701Y7735D01*
X2706Y7725D01*
X2711Y7716D01*
X2716Y7708D01*
X2722Y7699D01*
X2729Y7691D01*
X2736Y7684D01*
X2743Y7677D01*
X2751Y7671D01*
X2760Y7665D01*
X2769Y7659D01*
X2778Y7654D01*
X2787Y7650D01*
X2797Y7646D01*
X2806Y7643D01*
X2816Y7641D01*
X2826Y7639D01*
X2837Y7638D01*
X2847Y7638D01*
X2857Y7638D01*
X2867Y7638D01*
X2878Y7640D01*
X2888Y7642D01*
X2898Y7645D01*
X2907Y7648D01*
X2917Y7652D01*
X2926Y7657D01*
X2935Y7662D01*
X2943Y7668D01*
X2952Y7674D01*
X2959Y7680D01*
X2967Y7688D01*
X2974Y7695D01*
X2980Y7703D01*
X2986Y7712D01*
X2991Y7721D01*
X2996Y7730D01*
X3000Y7739D01*
X3003Y7749D01*
X3006Y7759D01*
X3009Y7769D01*
X3010Y7779D01*
X3011Y7789D01*
X3012Y7800D01*
X2690Y7800D01*
X3010Y7800D01*
X2850Y7960D02*
X2850Y7640D01*
D02*
D43*
X3800Y8075D03*
D02*
D23*
X3800Y7675D03*
D02*
D43*
X3700Y8075D03*
D02*
D23*
X3700Y7675D03*
D02*
D27*
X2425Y7725D03*
D02*
D47*
X3575Y7750D03*
D02*
D33*
X3450Y8200D03*
X3750Y8200D03*
D02*
D11*
X7906Y6450D02*
X7906Y6450D01*
X7904Y6454D01*
X7899Y6456D01*
X7895Y6454D01*
X7894Y6449D01*
X7895Y6445D01*
X7900Y6444D01*
X7904Y6445D01*
X7906Y6450D01*
X7896Y6450D01*
X7904Y6450D01*
X7900Y6454D02*
X7900Y6446D01*
X11506Y6450D02*
X11506Y6450D01*
X11504Y6454D01*
X11499Y6456D01*
X11495Y6454D01*
X11494Y6449D01*
X11495Y6445D01*
X11500Y6444D01*
X11504Y6445D01*
X11506Y6450D01*
X11496Y6450D01*
X11504Y6450D01*
X11500Y6454D02*
X11500Y6446D01*
D02*
D43*
X10025Y6925D03*
D02*
D23*
X10025Y6525D03*
D02*
D43*
X10200Y6925D03*
D02*
D23*
X10200Y6525D03*
D02*
D43*
X9175Y6900D03*
D02*
D23*
X9175Y6800D03*
D02*
D33*
X9350Y7100D03*
X9350Y7000D03*
X9350Y6900D03*
X9350Y6800D03*
X9350Y6700D03*
X9650Y7100D03*
X9650Y7000D03*
X9650Y6900D03*
X9650Y6800D03*
X9650Y6700D03*
X9650Y6600D03*
X9350Y6600D03*
D02*
D27*
X11350Y7175D03*
X11350Y6975D03*
D02*
D47*
X11350Y6575D03*
D02*
D29*
X10550Y6800D03*
X8150Y6800D03*
D02*
D43*
X9825Y6800D03*
D02*
D23*
X9825Y6700D03*
D02*
D47*
X9825Y7025D03*
D02*
D21*
X9000Y6900D03*
X8950Y6825D03*
D02*
D42*
X8900Y6900D03*
D02*
D23*
X8700Y6600D03*
X10200Y7075D03*
X10025Y7075D03*
D02*
D27*
X10975Y6550D03*
D02*
D11*
X4206Y6450D02*
X4206Y6450D01*
X4204Y6454D01*
X4199Y6456D01*
X4195Y6454D01*
X4194Y6449D01*
X4195Y6445D01*
X4200Y6444D01*
X4204Y6445D01*
X4206Y6450D01*
X4196Y6450D01*
X4204Y6450D01*
X4200Y6454D02*
X4200Y6446D01*
X7806Y6450D02*
X7806Y6450D01*
X7804Y6454D01*
X7799Y6456D01*
X7795Y6454D01*
X7794Y6449D01*
X7795Y6445D01*
X7800Y6444D01*
X7804Y6445D01*
X7806Y6450D01*
X7796Y6450D01*
X7804Y6450D01*
X7800Y6454D02*
X7800Y6446D01*
D02*
D43*
X6325Y6925D03*
D02*
D23*
X6325Y6525D03*
D02*
D43*
X6500Y6925D03*
D02*
D23*
X6500Y6525D03*
D02*
D43*
X5475Y6900D03*
D02*
D23*
X5475Y6800D03*
D02*
D33*
X5650Y7100D03*
X5650Y7000D03*
X5650Y6900D03*
X5650Y6800D03*
X5650Y6700D03*
X5950Y7100D03*
X5950Y7000D03*
X5950Y6900D03*
X5950Y6800D03*
X5950Y6700D03*
X5950Y6600D03*
X5650Y6600D03*
D02*
D27*
X7650Y7175D03*
X7650Y6975D03*
D02*
D47*
X7650Y6575D03*
D02*
D29*
X6850Y6800D03*
X4450Y6800D03*
D02*
D43*
X6125Y6800D03*
D02*
D23*
X6125Y6700D03*
D02*
D47*
X6125Y7025D03*
D02*
D21*
X5300Y6900D03*
X5250Y6825D03*
D02*
D42*
X5200Y6900D03*
D02*
D23*
X5000Y6600D03*
X6500Y7075D03*
X6325Y7075D03*
D02*
D27*
X7275Y6550D03*
D02*
D11*
X506Y6450D02*
X506Y6450D01*
X504Y6454D01*
X499Y6456D01*
X495Y6454D01*
X494Y6449D01*
X495Y6445D01*
X500Y6444D01*
X504Y6445D01*
X506Y6450D01*
X496Y6450D01*
X504Y6450D01*
X500Y6454D02*
X500Y6446D01*
X4106Y6450D02*
X4106Y6450D01*
X4104Y6454D01*
X4099Y6456D01*
X4095Y6454D01*
X4094Y6449D01*
X4095Y6445D01*
X4100Y6444D01*
X4104Y6445D01*
X4106Y6450D01*
X4096Y6450D01*
X4104Y6450D01*
X4100Y6454D02*
X4100Y6446D01*
D02*
D43*
X2625Y6925D03*
D02*
D23*
X2625Y6525D03*
D02*
D43*
X2800Y6925D03*
D02*
D23*
X2800Y6525D03*
D02*
D43*
X1775Y6900D03*
D02*
D23*
X1775Y6800D03*
D02*
D33*
X1950Y7100D03*
X1950Y7000D03*
X1950Y6900D03*
X1950Y6800D03*
X1950Y6700D03*
X2250Y7100D03*
X2250Y7000D03*
X2250Y6900D03*
X2250Y6800D03*
X2250Y6700D03*
X2250Y6600D03*
X1950Y6600D03*
D02*
D27*
X3950Y7175D03*
X3950Y6975D03*
D02*
D47*
X3950Y6575D03*
D02*
D29*
X3150Y6800D03*
X750Y6800D03*
D02*
D43*
X2425Y6800D03*
D02*
D23*
X2425Y6700D03*
D02*
D47*
X2425Y7025D03*
D02*
D21*
X1600Y6900D03*
X1550Y6825D03*
D02*
D42*
X1500Y6900D03*
D02*
D23*
X1300Y6600D03*
X2800Y7075D03*
X2625Y7075D03*
D02*
D27*
X3575Y6550D03*
D02*
D23*
X10675Y6225D03*
D02*
D43*
X10275Y6225D03*
D02*
D33*
X9650Y6200D03*
D02*
D53*
X9350Y6200D03*
D02*
D43*
X8800Y6200D03*
X8975Y6200D03*
X9150Y6200D03*
X10000Y6200D03*
X9825Y6200D03*
D02*
D11*
X7906Y6350D02*
X7906Y6350D01*
X7904Y6354D01*
X7899Y6356D01*
X7895Y6354D01*
X7894Y6349D01*
X7895Y6345D01*
X7900Y6344D01*
X7904Y6345D01*
X7906Y6350D01*
X7896Y6350D01*
X7904Y6350D01*
X7900Y6354D02*
X7900Y6346D01*
X11506Y6350D02*
X11506Y6350D01*
X11504Y6354D01*
X11499Y6356D01*
X11495Y6354D01*
X11494Y6349D01*
X11495Y6345D01*
X11500Y6344D01*
X11504Y6345D01*
X11506Y6350D01*
X11496Y6350D01*
X11504Y6350D01*
X11500Y6354D02*
X11500Y6346D01*
D02*
D43*
X11350Y6225D03*
D02*
D53*
X10850Y6200D03*
D02*
D33*
X11150Y6200D03*
D02*
D23*
X6975Y6225D03*
D02*
D43*
X6575Y6225D03*
D02*
D33*
X5950Y6200D03*
D02*
D53*
X5650Y6200D03*
D02*
D43*
X5100Y6200D03*
X5275Y6200D03*
X5450Y6200D03*
X6300Y6200D03*
X6125Y6200D03*
D02*
D11*
X4206Y6350D02*
X4206Y6350D01*
X4204Y6354D01*
X4199Y6356D01*
X4195Y6354D01*
X4194Y6349D01*
X4195Y6345D01*
X4200Y6344D01*
X4204Y6345D01*
X4206Y6350D01*
X4196Y6350D01*
X4204Y6350D01*
X4200Y6354D02*
X4200Y6346D01*
X7806Y6350D02*
X7806Y6350D01*
X7804Y6354D01*
X7799Y6356D01*
X7795Y6354D01*
X7794Y6349D01*
X7795Y6345D01*
X7800Y6344D01*
X7804Y6345D01*
X7806Y6350D01*
X7796Y6350D01*
X7804Y6350D01*
X7800Y6354D02*
X7800Y6346D01*
D02*
D43*
X7650Y6225D03*
D02*
D53*
X7150Y6200D03*
D02*
D33*
X7450Y6200D03*
D02*
D23*
X3275Y6225D03*
D02*
D43*
X2875Y6225D03*
D02*
D33*
X2250Y6200D03*
D02*
D53*
X1950Y6200D03*
D02*
D43*
X1400Y6200D03*
X1575Y6200D03*
X1750Y6200D03*
X2600Y6200D03*
X2425Y6200D03*
D02*
D11*
X506Y6350D02*
X506Y6350D01*
X504Y6354D01*
X499Y6356D01*
X495Y6354D01*
X494Y6349D01*
X495Y6345D01*
X500Y6344D01*
X504Y6345D01*
X506Y6350D01*
X496Y6350D01*
X504Y6350D01*
X500Y6354D02*
X500Y6346D01*
X4106Y6350D02*
X4106Y6350D01*
X4104Y6354D01*
X4099Y6356D01*
X4095Y6354D01*
X4094Y6349D01*
X4095Y6345D01*
X4100Y6344D01*
X4104Y6345D01*
X4106Y6350D01*
X4096Y6350D01*
X4104Y6350D01*
X4100Y6354D02*
X4100Y6346D01*
D02*
D43*
X3950Y6225D03*
D02*
D53*
X3450Y6200D03*
D02*
D33*
X3750Y6200D03*
D02*
D43*
X9950Y5675D03*
D02*
D23*
X10050Y5675D03*
X11425Y5425D03*
D02*
D43*
X11325Y5425D03*
X11325Y5225D03*
D02*
D23*
X11425Y5225D03*
D02*
D33*
X9650Y5175D03*
X9650Y5275D03*
X9650Y5375D03*
X9350Y5175D03*
X9350Y5275D03*
D02*
D53*
X9350Y5375D03*
D02*
D33*
X9350Y5600D03*
X9350Y5700D03*
X9650Y5600D03*
X9650Y5700D03*
D02*
D43*
X8625Y5475D03*
X8800Y5475D03*
X8975Y5475D03*
X9150Y5475D03*
D02*
D23*
X9150Y5675D03*
D02*
D43*
X9050Y5675D03*
X9825Y5450D03*
X10000Y5450D03*
D02*
D23*
X10225Y5350D03*
D02*
D43*
X10225Y5450D03*
D02*
D27*
X10550Y5300D03*
D02*
D43*
X10425Y5600D03*
D02*
D23*
X10625Y5600D03*
D02*
D43*
X11200Y5275D03*
X11100Y5275D03*
X11325Y5600D03*
D02*
D23*
X11425Y5600D03*
D02*
D33*
X10850Y5700D03*
X10850Y5600D03*
X10850Y5500D03*
X11150Y5500D03*
X11150Y5600D03*
X11150Y5700D03*
X10850Y5400D03*
X11150Y5400D03*
D02*
D23*
X11425Y5725D03*
D02*
D43*
X11325Y5725D03*
D02*
D42*
X10175Y6000D03*
D02*
D21*
X10225Y5925D03*
X10275Y6000D03*
D02*
D33*
X9650Y6000D03*
X9650Y6100D03*
X9350Y6000D03*
X9350Y6100D03*
X9650Y5900D03*
X9350Y5900D03*
X9350Y5800D03*
X9650Y5800D03*
D02*
D23*
X8800Y5800D03*
X8975Y5800D03*
X9150Y5800D03*
X10000Y5800D03*
X9825Y5800D03*
D02*
D29*
X8150Y6000D03*
X10550Y6000D03*
D02*
D11*
X10788Y5850D02*
X10788Y5850D01*
X10787Y5860D01*
X10784Y5870D01*
X10779Y5880D01*
X10774Y5889D01*
X10766Y5897D01*
X10758Y5903D01*
X10748Y5908D01*
X10738Y5911D01*
X10727Y5912D01*
X10716Y5912D01*
X10706Y5910D01*
X10696Y5906D01*
X10687Y5900D01*
X10679Y5893D01*
X10672Y5885D01*
X10667Y5875D01*
X10664Y5865D01*
X10662Y5855D01*
X10662Y5844D01*
X10664Y5834D01*
X10667Y5824D01*
X10672Y5814D01*
X10679Y5806D01*
X10687Y5799D01*
X10696Y5793D01*
X10706Y5789D01*
X10716Y5787D01*
X10727Y5787D01*
X10738Y5788D01*
X10748Y5791D01*
X10758Y5796D01*
X10766Y5802D01*
X10774Y5810D01*
X10779Y5819D01*
X10784Y5829D01*
X10787Y5839D01*
X10788Y5850D01*
X10664Y5850D01*
X10786Y5850D01*
X10725Y5911D02*
X10725Y5789D01*
X11338Y5850D02*
X11338Y5850D01*
X11337Y5860D01*
X11334Y5870D01*
X11329Y5880D01*
X11324Y5889D01*
X11316Y5897D01*
X11308Y5903D01*
X11298Y5908D01*
X11288Y5911D01*
X11277Y5912D01*
X11266Y5912D01*
X11256Y5910D01*
X11246Y5906D01*
X11237Y5900D01*
X11229Y5893D01*
X11222Y5885D01*
X11217Y5875D01*
X11214Y5865D01*
X11212Y5855D01*
X11212Y5844D01*
X11214Y5834D01*
X11217Y5824D01*
X11222Y5814D01*
X11229Y5806D01*
X11237Y5799D01*
X11246Y5793D01*
X11256Y5789D01*
X11266Y5787D01*
X11277Y5787D01*
X11288Y5788D01*
X11298Y5791D01*
X11308Y5796D01*
X11316Y5802D01*
X11324Y5810D01*
X11329Y5819D01*
X11334Y5829D01*
X11337Y5839D01*
X11338Y5850D01*
X11214Y5850D01*
X11336Y5850D01*
X11275Y5911D02*
X11275Y5789D01*
D02*
D23*
X11350Y6025D03*
D02*
D33*
X10850Y6100D03*
X11150Y6100D03*
X10850Y6000D03*
X10850Y5900D03*
X11150Y5900D03*
X11150Y6000D03*
X10850Y5800D03*
X11150Y5800D03*
D02*
D43*
X6250Y5675D03*
D02*
D23*
X6350Y5675D03*
X7725Y5425D03*
D02*
D43*
X7625Y5425D03*
X7625Y5225D03*
D02*
D23*
X7725Y5225D03*
D02*
D33*
X5950Y5175D03*
X5950Y5275D03*
X5950Y5375D03*
X5650Y5175D03*
X5650Y5275D03*
D02*
D53*
X5650Y5375D03*
D02*
D33*
X5650Y5600D03*
X5650Y5700D03*
X5950Y5600D03*
X5950Y5700D03*
D02*
D43*
X4925Y5475D03*
X5100Y5475D03*
X5275Y5475D03*
X5450Y5475D03*
D02*
D23*
X5450Y5675D03*
D02*
D43*
X5350Y5675D03*
X6125Y5450D03*
X6300Y5450D03*
D02*
D23*
X6525Y5350D03*
D02*
D43*
X6525Y5450D03*
D02*
D27*
X6850Y5300D03*
D02*
D43*
X6725Y5600D03*
D02*
D23*
X6925Y5600D03*
D02*
D43*
X7500Y5275D03*
X7400Y5275D03*
X7625Y5600D03*
D02*
D23*
X7725Y5600D03*
D02*
D33*
X7150Y5700D03*
X7150Y5600D03*
X7150Y5500D03*
X7450Y5500D03*
X7450Y5600D03*
X7450Y5700D03*
X7150Y5400D03*
X7450Y5400D03*
D02*
D23*
X7725Y5725D03*
D02*
D43*
X7625Y5725D03*
D02*
D42*
X6475Y6000D03*
D02*
D21*
X6525Y5925D03*
X6575Y6000D03*
D02*
D33*
X5950Y6000D03*
X5950Y6100D03*
X5650Y6000D03*
X5650Y6100D03*
X5950Y5900D03*
X5650Y5900D03*
X5650Y5800D03*
X5950Y5800D03*
D02*
D23*
X5100Y5800D03*
X5275Y5800D03*
X5450Y5800D03*
X6300Y5800D03*
X6125Y5800D03*
D02*
D29*
X4450Y6000D03*
X6850Y6000D03*
D02*
D11*
X7088Y5850D02*
X7088Y5850D01*
X7087Y5860D01*
X7084Y5870D01*
X7079Y5880D01*
X7074Y5889D01*
X7066Y5897D01*
X7058Y5903D01*
X7048Y5908D01*
X7038Y5911D01*
X7027Y5912D01*
X7016Y5912D01*
X7006Y5910D01*
X6996Y5906D01*
X6987Y5900D01*
X6979Y5893D01*
X6972Y5885D01*
X6967Y5875D01*
X6964Y5865D01*
X6962Y5855D01*
X6962Y5844D01*
X6964Y5834D01*
X6967Y5824D01*
X6972Y5814D01*
X6979Y5806D01*
X6987Y5799D01*
X6996Y5793D01*
X7006Y5789D01*
X7016Y5787D01*
X7027Y5787D01*
X7038Y5788D01*
X7048Y5791D01*
X7058Y5796D01*
X7066Y5802D01*
X7074Y5810D01*
X7079Y5819D01*
X7084Y5829D01*
X7087Y5839D01*
X7088Y5850D01*
X6964Y5850D01*
X7086Y5850D01*
X7025Y5911D02*
X7025Y5789D01*
X7638Y5850D02*
X7638Y5850D01*
X7637Y5860D01*
X7634Y5870D01*
X7629Y5880D01*
X7624Y5889D01*
X7616Y5897D01*
X7608Y5903D01*
X7598Y5908D01*
X7588Y5911D01*
X7577Y5912D01*
X7566Y5912D01*
X7556Y5910D01*
X7546Y5906D01*
X7537Y5900D01*
X7529Y5893D01*
X7522Y5885D01*
X7517Y5875D01*
X7514Y5865D01*
X7512Y5855D01*
X7512Y5844D01*
X7514Y5834D01*
X7517Y5824D01*
X7522Y5814D01*
X7529Y5806D01*
X7537Y5799D01*
X7546Y5793D01*
X7556Y5789D01*
X7566Y5787D01*
X7577Y5787D01*
X7588Y5788D01*
X7598Y5791D01*
X7608Y5796D01*
X7616Y5802D01*
X7624Y5810D01*
X7629Y5819D01*
X7634Y5829D01*
X7637Y5839D01*
X7638Y5850D01*
X7514Y5850D01*
X7636Y5850D01*
X7575Y5911D02*
X7575Y5789D01*
D02*
D23*
X7650Y6025D03*
D02*
D33*
X7150Y6100D03*
X7450Y6100D03*
X7150Y6000D03*
X7150Y5900D03*
X7450Y5900D03*
X7450Y6000D03*
X7150Y5800D03*
X7450Y5800D03*
D02*
D43*
X2550Y5675D03*
D02*
D23*
X2650Y5675D03*
X4025Y5425D03*
D02*
D43*
X3925Y5425D03*
X3925Y5225D03*
D02*
D23*
X4025Y5225D03*
D02*
D33*
X2250Y5175D03*
X2250Y5275D03*
X2250Y5375D03*
X1950Y5175D03*
X1950Y5275D03*
D02*
D53*
X1950Y5375D03*
D02*
D33*
X1950Y5600D03*
X1950Y5700D03*
X2250Y5600D03*
X2250Y5700D03*
D02*
D43*
X1225Y5475D03*
X1400Y5475D03*
X1575Y5475D03*
X1750Y5475D03*
D02*
D23*
X1750Y5675D03*
D02*
D43*
X1650Y5675D03*
X2425Y5450D03*
X2600Y5450D03*
D02*
D23*
X2825Y5350D03*
D02*
D43*
X2825Y5450D03*
D02*
D27*
X3150Y5300D03*
D02*
D43*
X3025Y5600D03*
D02*
D23*
X3225Y5600D03*
D02*
D43*
X3800Y5275D03*
X3700Y5275D03*
X3925Y5600D03*
D02*
D23*
X4025Y5600D03*
D02*
D33*
X3450Y5700D03*
X3450Y5600D03*
X3450Y5500D03*
X3750Y5500D03*
X3750Y5600D03*
X3750Y5700D03*
X3450Y5400D03*
X3750Y5400D03*
D02*
D23*
X4025Y5725D03*
D02*
D43*
X3925Y5725D03*
D02*
D42*
X2775Y6000D03*
D02*
D21*
X2825Y5925D03*
X2875Y6000D03*
D02*
D33*
X2250Y6000D03*
X2250Y6100D03*
X1950Y6000D03*
X1950Y6100D03*
X2250Y5900D03*
X1950Y5900D03*
X1950Y5800D03*
X2250Y5800D03*
D02*
D23*
X1400Y5800D03*
X1575Y5800D03*
X1750Y5800D03*
X2600Y5800D03*
X2425Y5800D03*
D02*
D29*
X750Y6000D03*
X3150Y6000D03*
D02*
D11*
X3388Y5850D02*
X3388Y5850D01*
X3387Y5860D01*
X3384Y5870D01*
X3379Y5880D01*
X3374Y5889D01*
X3366Y5897D01*
X3358Y5903D01*
X3348Y5908D01*
X3338Y5911D01*
X3327Y5912D01*
X3316Y5912D01*
X3306Y5910D01*
X3296Y5906D01*
X3287Y5900D01*
X3279Y5893D01*
X3272Y5885D01*
X3267Y5875D01*
X3264Y5865D01*
X3262Y5855D01*
X3262Y5844D01*
X3264Y5834D01*
X3267Y5824D01*
X3272Y5814D01*
X3279Y5806D01*
X3287Y5799D01*
X3296Y5793D01*
X3306Y5789D01*
X3316Y5787D01*
X3327Y5787D01*
X3338Y5788D01*
X3348Y5791D01*
X3358Y5796D01*
X3366Y5802D01*
X3374Y5810D01*
X3379Y5819D01*
X3384Y5829D01*
X3387Y5839D01*
X3388Y5850D01*
X3264Y5850D01*
X3386Y5850D01*
X3325Y5911D02*
X3325Y5789D01*
X3938Y5850D02*
X3938Y5850D01*
X3937Y5860D01*
X3934Y5870D01*
X3929Y5880D01*
X3924Y5889D01*
X3916Y5897D01*
X3908Y5903D01*
X3898Y5908D01*
X3888Y5911D01*
X3877Y5912D01*
X3866Y5912D01*
X3856Y5910D01*
X3846Y5906D01*
X3837Y5900D01*
X3829Y5893D01*
X3822Y5885D01*
X3817Y5875D01*
X3814Y5865D01*
X3812Y5855D01*
X3812Y5844D01*
X3814Y5834D01*
X3817Y5824D01*
X3822Y5814D01*
X3829Y5806D01*
X3837Y5799D01*
X3846Y5793D01*
X3856Y5789D01*
X3866Y5787D01*
X3877Y5787D01*
X3888Y5788D01*
X3898Y5791D01*
X3908Y5796D01*
X3916Y5802D01*
X3924Y5810D01*
X3929Y5819D01*
X3934Y5829D01*
X3937Y5839D01*
X3938Y5850D01*
X3814Y5850D01*
X3936Y5850D01*
X3875Y5911D02*
X3875Y5789D01*
D02*
D23*
X3950Y6025D03*
D02*
D33*
X3450Y6100D03*
X3750Y6100D03*
X3450Y6000D03*
X3450Y5900D03*
X3750Y5900D03*
X3750Y6000D03*
X3450Y5800D03*
X3750Y5800D03*
D02*
D23*
X8825Y4500D03*
X9175Y4500D03*
D02*
D53*
X9350Y4500D03*
D02*
D33*
X9350Y4400D03*
X9350Y4300D03*
X9350Y4200D03*
X9650Y4500D03*
X9650Y4400D03*
X9650Y4300D03*
X9650Y4200D03*
X9350Y4675D03*
X9650Y4675D03*
D02*
D47*
X10550Y4700D03*
D02*
D23*
X10625Y4400D03*
D02*
D43*
X10425Y4400D03*
D02*
D27*
X11350Y4575D03*
X11350Y4375D03*
X11350Y4175D03*
D02*
D47*
X9825Y4225D03*
D02*
D43*
X8700Y4400D03*
X10200Y4675D03*
D02*
D23*
X10200Y4275D03*
D02*
D43*
X10025Y4675D03*
D02*
D23*
X10025Y4275D03*
X11425Y5025D03*
D02*
D43*
X11325Y5025D03*
X11325Y4825D03*
D02*
D23*
X11425Y4825D03*
D02*
D43*
X9000Y4850D03*
D02*
D23*
X9000Y4750D03*
D02*
D43*
X8825Y4900D03*
X9175Y4900D03*
D02*
D33*
X9650Y4775D03*
X9650Y4875D03*
X9650Y4975D03*
X9650Y5075D03*
X9350Y4775D03*
X9350Y4875D03*
X9350Y4975D03*
X9350Y5075D03*
D02*
D23*
X8625Y5075D03*
X8800Y5075D03*
X8975Y5075D03*
X9150Y5075D03*
X9825Y5050D03*
X10000Y5050D03*
D02*
D24*
X10800Y5100D03*
X10800Y5000D03*
D02*
D44*
X10800Y4900D03*
D02*
D11*
X10412Y5000D02*
X10412Y5000D01*
X10411Y5010D01*
X10410Y5020D01*
X10409Y5030D01*
X10406Y5040D01*
X10403Y5050D01*
X10400Y5060D01*
X10396Y5069D01*
X10391Y5078D01*
X10386Y5087D01*
X10380Y5096D01*
X10374Y5104D01*
X10367Y5111D01*
X10359Y5119D01*
X10352Y5125D01*
X10343Y5131D01*
X10335Y5137D01*
X10326Y5142D01*
X10317Y5147D01*
X10307Y5151D01*
X10298Y5154D01*
X10288Y5157D01*
X10278Y5159D01*
X10267Y5161D01*
X10257Y5161D01*
X10247Y5161D01*
X10237Y5161D01*
X10226Y5160D01*
X10216Y5158D01*
X10206Y5156D01*
X10197Y5153D01*
X10187Y5149D01*
X10178Y5145D01*
X10168Y5140D01*
X10160Y5134D01*
X10151Y5128D01*
X10143Y5122D01*
X10136Y5115D01*
X10129Y5108D01*
X10122Y5100D01*
X10116Y5091D01*
X10111Y5083D01*
X10106Y5074D01*
X10101Y5064D01*
X10097Y5055D01*
X10094Y5045D01*
X10091Y5035D01*
X10090Y5025D01*
X10088Y5015D01*
X10088Y5005D01*
X10088Y4994D01*
X10088Y4984D01*
X10090Y4974D01*
X10091Y4964D01*
X10094Y4954D01*
X10097Y4944D01*
X10101Y4935D01*
X10106Y4925D01*
X10111Y4916D01*
X10116Y4908D01*
X10122Y4899D01*
X10129Y4891D01*
X10136Y4884D01*
X10143Y4877D01*
X10151Y4871D01*
X10160Y4865D01*
X10169Y4859D01*
X10178Y4854D01*
X10187Y4850D01*
X10197Y4846D01*
X10206Y4843D01*
X10216Y4841D01*
X10226Y4839D01*
X10237Y4838D01*
X10247Y4838D01*
X10257Y4838D01*
X10267Y4838D01*
X10278Y4840D01*
X10288Y4842D01*
X10298Y4845D01*
X10307Y4848D01*
X10317Y4852D01*
X10326Y4857D01*
X10335Y4862D01*
X10343Y4868D01*
X10352Y4874D01*
X10359Y4880D01*
X10367Y4888D01*
X10374Y4895D01*
X10380Y4903D01*
X10386Y4912D01*
X10391Y4921D01*
X10396Y4930D01*
X10400Y4939D01*
X10403Y4949D01*
X10406Y4959D01*
X10409Y4969D01*
X10410Y4979D01*
X10411Y4989D01*
X10412Y5000D01*
X10090Y5000D01*
X10410Y5000D01*
X10250Y5160D02*
X10250Y4840D01*
D02*
D23*
X11200Y4875D03*
X11100Y4875D03*
D02*
D27*
X9825Y4925D03*
D02*
D47*
X10975Y4950D03*
D02*
D23*
X5125Y4500D03*
X5475Y4500D03*
D02*
D53*
X5650Y4500D03*
D02*
D33*
X5650Y4400D03*
X5650Y4300D03*
X5650Y4200D03*
X5950Y4500D03*
X5950Y4400D03*
X5950Y4300D03*
X5950Y4200D03*
X5650Y4675D03*
X5950Y4675D03*
D02*
D47*
X6850Y4700D03*
D02*
D23*
X6925Y4400D03*
D02*
D43*
X6725Y4400D03*
D02*
D27*
X7650Y4575D03*
X7650Y4375D03*
X7650Y4175D03*
D02*
D47*
X6125Y4225D03*
D02*
D43*
X5000Y4400D03*
X6500Y4675D03*
D02*
D23*
X6500Y4275D03*
D02*
D43*
X6325Y4675D03*
D02*
D23*
X6325Y4275D03*
X7725Y5025D03*
D02*
D43*
X7625Y5025D03*
X7625Y4825D03*
D02*
D23*
X7725Y4825D03*
D02*
D43*
X5300Y4850D03*
D02*
D23*
X5300Y4750D03*
D02*
D43*
X5125Y4900D03*
X5475Y4900D03*
D02*
D33*
X5950Y4775D03*
X5950Y4875D03*
X5950Y4975D03*
X5950Y5075D03*
X5650Y4775D03*
X5650Y4875D03*
X5650Y4975D03*
X5650Y5075D03*
D02*
D23*
X4925Y5075D03*
X5100Y5075D03*
X5275Y5075D03*
X5450Y5075D03*
X6125Y5050D03*
X6300Y5050D03*
D02*
D24*
X7100Y5100D03*
X7100Y5000D03*
D02*
D44*
X7100Y4900D03*
D02*
D11*
X6712Y5000D02*
X6712Y5000D01*
X6711Y5010D01*
X6710Y5020D01*
X6709Y5030D01*
X6706Y5040D01*
X6703Y5050D01*
X6700Y5060D01*
X6696Y5069D01*
X6691Y5078D01*
X6686Y5087D01*
X6680Y5096D01*
X6674Y5104D01*
X6667Y5111D01*
X6659Y5119D01*
X6652Y5125D01*
X6643Y5131D01*
X6635Y5137D01*
X6626Y5142D01*
X6617Y5147D01*
X6607Y5151D01*
X6598Y5154D01*
X6588Y5157D01*
X6578Y5159D01*
X6567Y5161D01*
X6557Y5161D01*
X6547Y5161D01*
X6537Y5161D01*
X6526Y5160D01*
X6516Y5158D01*
X6506Y5156D01*
X6497Y5153D01*
X6487Y5149D01*
X6478Y5145D01*
X6468Y5140D01*
X6460Y5134D01*
X6451Y5128D01*
X6443Y5122D01*
X6436Y5115D01*
X6429Y5108D01*
X6422Y5100D01*
X6416Y5091D01*
X6411Y5083D01*
X6406Y5074D01*
X6401Y5064D01*
X6397Y5055D01*
X6394Y5045D01*
X6391Y5035D01*
X6390Y5025D01*
X6388Y5015D01*
X6388Y5005D01*
X6388Y4994D01*
X6388Y4984D01*
X6390Y4974D01*
X6391Y4964D01*
X6394Y4954D01*
X6397Y4944D01*
X6401Y4935D01*
X6406Y4925D01*
X6411Y4916D01*
X6416Y4908D01*
X6422Y4899D01*
X6429Y4891D01*
X6436Y4884D01*
X6443Y4877D01*
X6451Y4871D01*
X6460Y4865D01*
X6469Y4859D01*
X6478Y4854D01*
X6487Y4850D01*
X6497Y4846D01*
X6506Y4843D01*
X6516Y4841D01*
X6526Y4839D01*
X6537Y4838D01*
X6547Y4838D01*
X6557Y4838D01*
X6567Y4838D01*
X6578Y4840D01*
X6588Y4842D01*
X6598Y4845D01*
X6607Y4848D01*
X6617Y4852D01*
X6626Y4857D01*
X6635Y4862D01*
X6643Y4868D01*
X6652Y4874D01*
X6659Y4880D01*
X6667Y4888D01*
X6674Y4895D01*
X6680Y4903D01*
X6686Y4912D01*
X6691Y4921D01*
X6696Y4930D01*
X6700Y4939D01*
X6703Y4949D01*
X6706Y4959D01*
X6709Y4969D01*
X6710Y4979D01*
X6711Y4989D01*
X6712Y5000D01*
X6390Y5000D01*
X6710Y5000D01*
X6550Y5160D02*
X6550Y4840D01*
D02*
D23*
X7500Y4875D03*
X7400Y4875D03*
D02*
D27*
X6125Y4925D03*
D02*
D47*
X7275Y4950D03*
D02*
D23*
X1425Y4500D03*
X1775Y4500D03*
D02*
D53*
X1950Y4500D03*
D02*
D33*
X1950Y4400D03*
X1950Y4300D03*
X1950Y4200D03*
X2250Y4500D03*
X2250Y4400D03*
X2250Y4300D03*
X2250Y4200D03*
X1950Y4675D03*
X2250Y4675D03*
D02*
D47*
X3150Y4700D03*
D02*
D23*
X3225Y4400D03*
D02*
D43*
X3025Y4400D03*
D02*
D27*
X3950Y4575D03*
X3950Y4375D03*
X3950Y4175D03*
D02*
D47*
X2425Y4225D03*
D02*
D43*
X1300Y4400D03*
X2800Y4675D03*
D02*
D23*
X2800Y4275D03*
D02*
D43*
X2625Y4675D03*
D02*
D23*
X2625Y4275D03*
X4025Y5025D03*
D02*
D43*
X3925Y5025D03*
X3925Y4825D03*
D02*
D23*
X4025Y4825D03*
D02*
D43*
X1600Y4850D03*
D02*
D23*
X1600Y4750D03*
D02*
D43*
X1425Y4900D03*
X1775Y4900D03*
D02*
D33*
X2250Y4775D03*
X2250Y4875D03*
X2250Y4975D03*
X2250Y5075D03*
X1950Y4775D03*
X1950Y4875D03*
X1950Y4975D03*
X1950Y5075D03*
D02*
D23*
X1225Y5075D03*
X1400Y5075D03*
X1575Y5075D03*
X1750Y5075D03*
X2425Y5050D03*
X2600Y5050D03*
D02*
D24*
X3400Y5100D03*
X3400Y5000D03*
D02*
D44*
X3400Y4900D03*
D02*
D11*
X3012Y5000D02*
X3012Y5000D01*
X3011Y5010D01*
X3010Y5020D01*
X3009Y5030D01*
X3006Y5040D01*
X3003Y5050D01*
X3000Y5060D01*
X2996Y5069D01*
X2991Y5078D01*
X2986Y5087D01*
X2980Y5096D01*
X2974Y5104D01*
X2967Y5111D01*
X2959Y5119D01*
X2952Y5125D01*
X2943Y5131D01*
X2935Y5137D01*
X2926Y5142D01*
X2917Y5147D01*
X2907Y5151D01*
X2898Y5154D01*
X2888Y5157D01*
X2878Y5159D01*
X2867Y5161D01*
X2857Y5161D01*
X2847Y5161D01*
X2837Y5161D01*
X2826Y5160D01*
X2816Y5158D01*
X2806Y5156D01*
X2797Y5153D01*
X2787Y5149D01*
X2778Y5145D01*
X2768Y5140D01*
X2760Y5134D01*
X2751Y5128D01*
X2743Y5122D01*
X2736Y5115D01*
X2729Y5108D01*
X2722Y5100D01*
X2716Y5091D01*
X2711Y5083D01*
X2706Y5074D01*
X2701Y5064D01*
X2697Y5055D01*
X2694Y5045D01*
X2691Y5035D01*
X2690Y5025D01*
X2688Y5015D01*
X2688Y5005D01*
X2688Y4994D01*
X2688Y4984D01*
X2690Y4974D01*
X2691Y4964D01*
X2694Y4954D01*
X2697Y4944D01*
X2701Y4935D01*
X2706Y4925D01*
X2711Y4916D01*
X2716Y4908D01*
X2722Y4899D01*
X2729Y4891D01*
X2736Y4884D01*
X2743Y4877D01*
X2751Y4871D01*
X2760Y4865D01*
X2769Y4859D01*
X2778Y4854D01*
X2787Y4850D01*
X2797Y4846D01*
X2806Y4843D01*
X2816Y4841D01*
X2826Y4839D01*
X2837Y4838D01*
X2847Y4838D01*
X2857Y4838D01*
X2867Y4838D01*
X2878Y4840D01*
X2888Y4842D01*
X2898Y4845D01*
X2907Y4848D01*
X2917Y4852D01*
X2926Y4857D01*
X2935Y4862D01*
X2943Y4868D01*
X2952Y4874D01*
X2959Y4880D01*
X2967Y4888D01*
X2974Y4895D01*
X2980Y4903D01*
X2986Y4912D01*
X2991Y4921D01*
X2996Y4930D01*
X3000Y4939D01*
X3003Y4949D01*
X3006Y4959D01*
X3009Y4969D01*
X3010Y4979D01*
X3011Y4989D01*
X3012Y5000D01*
X2690Y5000D01*
X3010Y5000D01*
X2850Y5160D02*
X2850Y4840D01*
D02*
D23*
X3800Y4875D03*
X3700Y4875D03*
D02*
D27*
X2425Y4925D03*
D02*
D47*
X3575Y4950D03*
D02*
D11*
X7906Y3650D02*
X7906Y3650D01*
X7904Y3654D01*
X7899Y3656D01*
X7895Y3654D01*
X7894Y3649D01*
X7895Y3645D01*
X7900Y3644D01*
X7904Y3645D01*
X7906Y3650D01*
X7896Y3650D01*
X7904Y3650D01*
X7900Y3654D02*
X7900Y3646D01*
X11506Y3650D02*
X11506Y3650D01*
X11504Y3654D01*
X11499Y3656D01*
X11495Y3654D01*
X11494Y3649D01*
X11495Y3645D01*
X11500Y3644D01*
X11504Y3645D01*
X11506Y3650D01*
X11496Y3650D01*
X11504Y3650D01*
X11500Y3654D02*
X11500Y3646D01*
D02*
D43*
X10025Y4125D03*
D02*
D23*
X10025Y3725D03*
D02*
D43*
X10200Y4125D03*
D02*
D23*
X10200Y3725D03*
D02*
D43*
X9175Y4100D03*
D02*
D23*
X9175Y4000D03*
D02*
D33*
X9350Y4100D03*
X9350Y4000D03*
X9350Y3900D03*
X9650Y4100D03*
X9650Y4000D03*
X9650Y3900D03*
X9650Y3800D03*
X9350Y3800D03*
D02*
D47*
X11350Y3775D03*
D02*
D29*
X10550Y4000D03*
X8150Y4000D03*
D02*
D43*
X9825Y4000D03*
D02*
D23*
X9825Y3900D03*
D02*
D21*
X9000Y4100D03*
X8950Y4025D03*
D02*
D42*
X8900Y4100D03*
D02*
D23*
X8700Y3800D03*
D02*
D27*
X10975Y3750D03*
D02*
D11*
X4206Y3650D02*
X4206Y3650D01*
X4204Y3654D01*
X4199Y3656D01*
X4195Y3654D01*
X4194Y3649D01*
X4195Y3645D01*
X4200Y3644D01*
X4204Y3645D01*
X4206Y3650D01*
X4196Y3650D01*
X4204Y3650D01*
X4200Y3654D02*
X4200Y3646D01*
X7806Y3650D02*
X7806Y3650D01*
X7804Y3654D01*
X7799Y3656D01*
X7795Y3654D01*
X7794Y3649D01*
X7795Y3645D01*
X7800Y3644D01*
X7804Y3645D01*
X7806Y3650D01*
X7796Y3650D01*
X7804Y3650D01*
X7800Y3654D02*
X7800Y3646D01*
D02*
D43*
X6325Y4125D03*
D02*
D23*
X6325Y3725D03*
D02*
D43*
X6500Y4125D03*
D02*
D23*
X6500Y3725D03*
D02*
D43*
X5475Y4100D03*
D02*
D23*
X5475Y4000D03*
D02*
D33*
X5650Y4100D03*
X5650Y4000D03*
X5650Y3900D03*
X5950Y4100D03*
X5950Y4000D03*
X5950Y3900D03*
X5950Y3800D03*
X5650Y3800D03*
D02*
D47*
X7650Y3775D03*
D02*
D29*
X6850Y4000D03*
X4450Y4000D03*
D02*
D43*
X6125Y4000D03*
D02*
D23*
X6125Y3900D03*
D02*
D21*
X5300Y4100D03*
X5250Y4025D03*
D02*
D42*
X5200Y4100D03*
D02*
D23*
X5000Y3800D03*
D02*
D27*
X7275Y3750D03*
D02*
D11*
X506Y3650D02*
X506Y3650D01*
X504Y3654D01*
X499Y3656D01*
X495Y3654D01*
X494Y3649D01*
X495Y3645D01*
X500Y3644D01*
X504Y3645D01*
X506Y3650D01*
X496Y3650D01*
X504Y3650D01*
X500Y3654D02*
X500Y3646D01*
X4106Y3650D02*
X4106Y3650D01*
X4104Y3654D01*
X4099Y3656D01*
X4095Y3654D01*
X4094Y3649D01*
X4095Y3645D01*
X4100Y3644D01*
X4104Y3645D01*
X4106Y3650D01*
X4096Y3650D01*
X4104Y3650D01*
X4100Y3654D02*
X4100Y3646D01*
D02*
D43*
X2625Y4125D03*
D02*
D23*
X2625Y3725D03*
D02*
D43*
X2800Y4125D03*
D02*
D23*
X2800Y3725D03*
D02*
D43*
X1775Y4100D03*
D02*
D23*
X1775Y4000D03*
D02*
D33*
X1950Y4100D03*
X1950Y4000D03*
X1950Y3900D03*
X2250Y4100D03*
X2250Y4000D03*
X2250Y3900D03*
X2250Y3800D03*
X1950Y3800D03*
D02*
D47*
X3950Y3775D03*
D02*
D29*
X3150Y4000D03*
X750Y4000D03*
D02*
D43*
X2425Y4000D03*
D02*
D23*
X2425Y3900D03*
D02*
D21*
X1600Y4100D03*
X1550Y4025D03*
D02*
D42*
X1500Y4100D03*
D02*
D23*
X1300Y3800D03*
D02*
D27*
X3575Y3750D03*
D02*
D23*
X10675Y3425D03*
D02*
D43*
X10275Y3425D03*
D02*
D42*
X10175Y3200D03*
D02*
D21*
X10225Y3125D03*
X10275Y3200D03*
D02*
D33*
X9650Y3200D03*
X9650Y3300D03*
X9350Y3200D03*
X9350Y3300D03*
X9650Y3400D03*
D02*
D53*
X9350Y3400D03*
D02*
D43*
X8800Y3400D03*
X8975Y3400D03*
X9150Y3400D03*
X10000Y3400D03*
X9825Y3400D03*
D02*
D11*
X7906Y3550D02*
X7906Y3550D01*
X7904Y3554D01*
X7899Y3556D01*
X7895Y3554D01*
X7894Y3549D01*
X7895Y3545D01*
X7900Y3544D01*
X7904Y3545D01*
X7906Y3550D01*
X7896Y3550D01*
X7904Y3550D01*
X7900Y3554D02*
X7900Y3546D01*
X11506Y3550D02*
X11506Y3550D01*
X11504Y3554D01*
X11499Y3556D01*
X11495Y3554D01*
X11494Y3549D01*
X11495Y3545D01*
X11500Y3544D01*
X11504Y3545D01*
X11506Y3550D01*
X11496Y3550D01*
X11504Y3550D01*
X11500Y3554D02*
X11500Y3546D01*
D02*
D23*
X11350Y3225D03*
D02*
D43*
X11350Y3425D03*
D02*
D33*
X10850Y3300D03*
X11150Y3300D03*
D02*
D53*
X10850Y3400D03*
D02*
D33*
X11150Y3400D03*
X10850Y3200D03*
X11150Y3200D03*
D02*
D23*
X6975Y3425D03*
D02*
D43*
X6575Y3425D03*
D02*
D42*
X6475Y3200D03*
D02*
D21*
X6525Y3125D03*
X6575Y3200D03*
D02*
D33*
X5950Y3200D03*
X5950Y3300D03*
X5650Y3200D03*
X5650Y3300D03*
X5950Y3400D03*
D02*
D53*
X5650Y3400D03*
D02*
D43*
X5100Y3400D03*
X5275Y3400D03*
X5450Y3400D03*
X6300Y3400D03*
X6125Y3400D03*
D02*
D11*
X4206Y3550D02*
X4206Y3550D01*
X4204Y3554D01*
X4199Y3556D01*
X4195Y3554D01*
X4194Y3549D01*
X4195Y3545D01*
X4200Y3544D01*
X4204Y3545D01*
X4206Y3550D01*
X4196Y3550D01*
X4204Y3550D01*
X4200Y3554D02*
X4200Y3546D01*
X7806Y3550D02*
X7806Y3550D01*
X7804Y3554D01*
X7799Y3556D01*
X7795Y3554D01*
X7794Y3549D01*
X7795Y3545D01*
X7800Y3544D01*
X7804Y3545D01*
X7806Y3550D01*
X7796Y3550D01*
X7804Y3550D01*
X7800Y3554D02*
X7800Y3546D01*
D02*
D23*
X7650Y3225D03*
D02*
D43*
X7650Y3425D03*
D02*
D33*
X7150Y3300D03*
X7450Y3300D03*
D02*
D53*
X7150Y3400D03*
D02*
D33*
X7450Y3400D03*
X7150Y3200D03*
X7450Y3200D03*
D02*
D23*
X3275Y3425D03*
D02*
D43*
X2875Y3425D03*
D02*
D42*
X2775Y3200D03*
D02*
D21*
X2825Y3125D03*
X2875Y3200D03*
D02*
D33*
X2250Y3200D03*
X2250Y3300D03*
X1950Y3200D03*
X1950Y3300D03*
X2250Y3400D03*
D02*
D53*
X1950Y3400D03*
D02*
D43*
X1400Y3400D03*
X1575Y3400D03*
X1750Y3400D03*
X2600Y3400D03*
X2425Y3400D03*
D02*
D11*
X506Y3550D02*
X506Y3550D01*
X504Y3554D01*
X499Y3556D01*
X495Y3554D01*
X494Y3549D01*
X495Y3545D01*
X500Y3544D01*
X504Y3545D01*
X506Y3550D01*
X496Y3550D01*
X504Y3550D01*
X500Y3554D02*
X500Y3546D01*
X4106Y3550D02*
X4106Y3550D01*
X4104Y3554D01*
X4099Y3556D01*
X4095Y3554D01*
X4094Y3549D01*
X4095Y3545D01*
X4100Y3544D01*
X4104Y3545D01*
X4106Y3550D01*
X4096Y3550D01*
X4104Y3550D01*
X4100Y3554D02*
X4100Y3546D01*
D02*
D23*
X3950Y3225D03*
D02*
D43*
X3950Y3425D03*
D02*
D33*
X3450Y3300D03*
X3750Y3300D03*
D02*
D53*
X3450Y3400D03*
D02*
D33*
X3750Y3400D03*
X3450Y3200D03*
X3750Y3200D03*
D02*
D43*
X9950Y2875D03*
D02*
D23*
X10050Y2875D03*
X11425Y2625D03*
D02*
D43*
X11325Y2625D03*
X11325Y2425D03*
D02*
D23*
X11425Y2425D03*
X11425Y2225D03*
D02*
D43*
X11325Y2225D03*
X8825Y2100D03*
X9175Y2100D03*
D02*
D33*
X9650Y2175D03*
X9650Y2275D03*
X9650Y2375D03*
X9650Y2475D03*
X9650Y2575D03*
X9350Y2175D03*
X9350Y2275D03*
X9350Y2375D03*
X9350Y2475D03*
D02*
D53*
X9350Y2575D03*
D02*
D33*
X9350Y2800D03*
X9350Y2900D03*
X9650Y2800D03*
X9650Y2900D03*
D02*
D23*
X8625Y2275D03*
D02*
D43*
X8625Y2675D03*
D02*
D23*
X8800Y2275D03*
D02*
D43*
X8800Y2675D03*
X8975Y2675D03*
D02*
D23*
X8975Y2275D03*
X9150Y2275D03*
D02*
D43*
X9150Y2675D03*
D02*
D23*
X9150Y2875D03*
D02*
D43*
X9050Y2875D03*
D02*
D23*
X9825Y2250D03*
D02*
D43*
X9825Y2650D03*
X10000Y2650D03*
D02*
D23*
X10000Y2250D03*
X10225Y2550D03*
D02*
D43*
X10225Y2650D03*
D02*
D27*
X10550Y2500D03*
D02*
D43*
X10425Y2800D03*
D02*
D23*
X10625Y2800D03*
D02*
D24*
X10800Y2300D03*
X10800Y2200D03*
D02*
D44*
X10800Y2100D03*
D02*
D43*
X11200Y2475D03*
X11100Y2475D03*
D02*
D27*
X9825Y2125D03*
D02*
D47*
X10975Y2150D03*
D02*
D43*
X11325Y2800D03*
D02*
D23*
X11425Y2800D03*
D02*
D33*
X10850Y2900D03*
X10850Y2800D03*
X10850Y2700D03*
X11150Y2700D03*
X11150Y2800D03*
X11150Y2900D03*
X10850Y2600D03*
X11150Y2600D03*
D02*
D23*
X11425Y2925D03*
D02*
D43*
X11325Y2925D03*
D02*
D33*
X9650Y3100D03*
X9350Y3100D03*
X9350Y3000D03*
X9650Y3000D03*
D02*
D23*
X8800Y3000D03*
X8975Y3000D03*
X9150Y3000D03*
X10000Y3000D03*
X9825Y3000D03*
D02*
D29*
X8150Y3200D03*
X10550Y3200D03*
D02*
D11*
X10788Y3050D02*
X10788Y3050D01*
X10787Y3060D01*
X10784Y3070D01*
X10779Y3080D01*
X10774Y3089D01*
X10766Y3097D01*
X10758Y3103D01*
X10748Y3108D01*
X10738Y3111D01*
X10727Y3112D01*
X10716Y3112D01*
X10706Y3110D01*
X10696Y3106D01*
X10687Y3100D01*
X10679Y3093D01*
X10672Y3085D01*
X10667Y3075D01*
X10664Y3065D01*
X10662Y3055D01*
X10662Y3044D01*
X10664Y3034D01*
X10667Y3024D01*
X10672Y3014D01*
X10679Y3006D01*
X10687Y2999D01*
X10696Y2993D01*
X10706Y2989D01*
X10716Y2987D01*
X10727Y2987D01*
X10738Y2988D01*
X10748Y2991D01*
X10758Y2996D01*
X10766Y3002D01*
X10774Y3010D01*
X10779Y3019D01*
X10784Y3029D01*
X10787Y3039D01*
X10788Y3050D01*
X10664Y3050D01*
X10786Y3050D01*
X10725Y3111D02*
X10725Y2989D01*
X11338Y3050D02*
X11338Y3050D01*
X11337Y3060D01*
X11334Y3070D01*
X11329Y3080D01*
X11324Y3089D01*
X11316Y3097D01*
X11308Y3103D01*
X11298Y3108D01*
X11288Y3111D01*
X11277Y3112D01*
X11266Y3112D01*
X11256Y3110D01*
X11246Y3106D01*
X11237Y3100D01*
X11229Y3093D01*
X11222Y3085D01*
X11217Y3075D01*
X11214Y3065D01*
X11212Y3055D01*
X11212Y3044D01*
X11214Y3034D01*
X11217Y3024D01*
X11222Y3014D01*
X11229Y3006D01*
X11237Y2999D01*
X11246Y2993D01*
X11256Y2989D01*
X11266Y2987D01*
X11277Y2987D01*
X11288Y2988D01*
X11298Y2991D01*
X11308Y2996D01*
X11316Y3002D01*
X11324Y3010D01*
X11329Y3019D01*
X11334Y3029D01*
X11337Y3039D01*
X11338Y3050D01*
X11214Y3050D01*
X11336Y3050D01*
X11275Y3111D02*
X11275Y2989D01*
D02*
D33*
X10850Y3100D03*
X11150Y3100D03*
X10850Y3000D03*
X11150Y3000D03*
D02*
D43*
X6250Y2875D03*
D02*
D23*
X6350Y2875D03*
X7725Y2625D03*
D02*
D43*
X7625Y2625D03*
X7625Y2425D03*
D02*
D23*
X7725Y2425D03*
X7725Y2225D03*
D02*
D43*
X7625Y2225D03*
X5125Y2100D03*
X5475Y2100D03*
D02*
D33*
X5950Y2175D03*
X5950Y2275D03*
X5950Y2375D03*
X5950Y2475D03*
X5950Y2575D03*
X5650Y2175D03*
X5650Y2275D03*
X5650Y2375D03*
X5650Y2475D03*
D02*
D53*
X5650Y2575D03*
D02*
D33*
X5650Y2800D03*
X5650Y2900D03*
X5950Y2800D03*
X5950Y2900D03*
D02*
D23*
X4925Y2275D03*
D02*
D43*
X4925Y2675D03*
D02*
D23*
X5100Y2275D03*
D02*
D43*
X5100Y2675D03*
X5275Y2675D03*
D02*
D23*
X5275Y2275D03*
X5450Y2275D03*
D02*
D43*
X5450Y2675D03*
D02*
D23*
X5450Y2875D03*
D02*
D43*
X5350Y2875D03*
D02*
D23*
X6125Y2250D03*
D02*
D43*
X6125Y2650D03*
X6300Y2650D03*
D02*
D23*
X6300Y2250D03*
X6525Y2550D03*
D02*
D43*
X6525Y2650D03*
D02*
D27*
X6850Y2500D03*
D02*
D43*
X6725Y2800D03*
D02*
D23*
X6925Y2800D03*
D02*
D24*
X7100Y2300D03*
X7100Y2200D03*
D02*
D44*
X7100Y2100D03*
D02*
D43*
X7500Y2475D03*
X7400Y2475D03*
D02*
D27*
X6125Y2125D03*
D02*
D47*
X7275Y2150D03*
D02*
D43*
X7625Y2800D03*
D02*
D23*
X7725Y2800D03*
D02*
D33*
X7150Y2900D03*
X7150Y2800D03*
X7150Y2700D03*
X7450Y2700D03*
X7450Y2800D03*
X7450Y2900D03*
X7150Y2600D03*
X7450Y2600D03*
D02*
D23*
X7725Y2925D03*
D02*
D43*
X7625Y2925D03*
D02*
D33*
X5950Y3100D03*
X5650Y3100D03*
X5650Y3000D03*
X5950Y3000D03*
D02*
D23*
X5100Y3000D03*
X5275Y3000D03*
X5450Y3000D03*
X6300Y3000D03*
X6125Y3000D03*
D02*
D29*
X4450Y3200D03*
X6850Y3200D03*
D02*
D11*
X7088Y3050D02*
X7088Y3050D01*
X7087Y3060D01*
X7084Y3070D01*
X7079Y3080D01*
X7074Y3089D01*
X7066Y3097D01*
X7058Y3103D01*
X7048Y3108D01*
X7038Y3111D01*
X7027Y3112D01*
X7016Y3112D01*
X7006Y3110D01*
X6996Y3106D01*
X6987Y3100D01*
X6979Y3093D01*
X6972Y3085D01*
X6967Y3075D01*
X6964Y3065D01*
X6962Y3055D01*
X6962Y3044D01*
X6964Y3034D01*
X6967Y3024D01*
X6972Y3014D01*
X6979Y3006D01*
X6987Y2999D01*
X6996Y2993D01*
X7006Y2989D01*
X7016Y2987D01*
X7027Y2987D01*
X7038Y2988D01*
X7048Y2991D01*
X7058Y2996D01*
X7066Y3002D01*
X7074Y3010D01*
X7079Y3019D01*
X7084Y3029D01*
X7087Y3039D01*
X7088Y3050D01*
X6964Y3050D01*
X7086Y3050D01*
X7025Y3111D02*
X7025Y2989D01*
X7638Y3050D02*
X7638Y3050D01*
X7637Y3060D01*
X7634Y3070D01*
X7629Y3080D01*
X7624Y3089D01*
X7616Y3097D01*
X7608Y3103D01*
X7598Y3108D01*
X7588Y3111D01*
X7577Y3112D01*
X7566Y3112D01*
X7556Y3110D01*
X7546Y3106D01*
X7537Y3100D01*
X7529Y3093D01*
X7522Y3085D01*
X7517Y3075D01*
X7514Y3065D01*
X7512Y3055D01*
X7512Y3044D01*
X7514Y3034D01*
X7517Y3024D01*
X7522Y3014D01*
X7529Y3006D01*
X7537Y2999D01*
X7546Y2993D01*
X7556Y2989D01*
X7566Y2987D01*
X7577Y2987D01*
X7588Y2988D01*
X7598Y2991D01*
X7608Y2996D01*
X7616Y3002D01*
X7624Y3010D01*
X7629Y3019D01*
X7634Y3029D01*
X7637Y3039D01*
X7638Y3050D01*
X7514Y3050D01*
X7636Y3050D01*
X7575Y3111D02*
X7575Y2989D01*
D02*
D33*
X7150Y3100D03*
X7450Y3100D03*
X7150Y3000D03*
X7450Y3000D03*
D02*
D43*
X2550Y2875D03*
D02*
D23*
X2650Y2875D03*
X4025Y2625D03*
D02*
D43*
X3925Y2625D03*
X3925Y2425D03*
D02*
D23*
X4025Y2425D03*
X4025Y2225D03*
D02*
D43*
X3925Y2225D03*
X1425Y2100D03*
X1775Y2100D03*
D02*
D33*
X2250Y2175D03*
X2250Y2275D03*
X2250Y2375D03*
X2250Y2475D03*
X2250Y2575D03*
X1950Y2175D03*
X1950Y2275D03*
X1950Y2375D03*
X1950Y2475D03*
D02*
D53*
X1950Y2575D03*
D02*
D33*
X1950Y2800D03*
X1950Y2900D03*
X2250Y2800D03*
X2250Y2900D03*
D02*
D23*
X1225Y2275D03*
D02*
D43*
X1225Y2675D03*
D02*
D23*
X1400Y2275D03*
D02*
D43*
X1400Y2675D03*
X1575Y2675D03*
D02*
D23*
X1575Y2275D03*
X1750Y2275D03*
D02*
D43*
X1750Y2675D03*
D02*
D23*
X1750Y2875D03*
D02*
D43*
X1650Y2875D03*
D02*
D23*
X2425Y2250D03*
D02*
D43*
X2425Y2650D03*
X2600Y2650D03*
D02*
D23*
X2600Y2250D03*
X2825Y2550D03*
D02*
D43*
X2825Y2650D03*
D02*
D27*
X3150Y2500D03*
D02*
D43*
X3025Y2800D03*
D02*
D23*
X3225Y2800D03*
D02*
D24*
X3400Y2300D03*
X3400Y2200D03*
D02*
D44*
X3400Y2100D03*
D02*
D43*
X3800Y2475D03*
X3700Y2475D03*
D02*
D27*
X2425Y2125D03*
D02*
D47*
X3575Y2150D03*
D02*
D43*
X3925Y2800D03*
D02*
D23*
X4025Y2800D03*
D02*
D33*
X3450Y2900D03*
X3450Y2800D03*
X3450Y2700D03*
X3750Y2700D03*
X3750Y2800D03*
X3750Y2900D03*
X3450Y2600D03*
X3750Y2600D03*
D02*
D23*
X4025Y2925D03*
D02*
D43*
X3925Y2925D03*
D02*
D33*
X2250Y3100D03*
X1950Y3100D03*
X1950Y3000D03*
X2250Y3000D03*
D02*
D23*
X1400Y3000D03*
X1575Y3000D03*
X1750Y3000D03*
X2600Y3000D03*
X2425Y3000D03*
D02*
D29*
X750Y3200D03*
X3150Y3200D03*
D02*
D11*
X3388Y3050D02*
X3388Y3050D01*
X3387Y3060D01*
X3384Y3070D01*
X3379Y3080D01*
X3374Y3089D01*
X3366Y3097D01*
X3358Y3103D01*
X3348Y3108D01*
X3338Y3111D01*
X3327Y3112D01*
X3316Y3112D01*
X3306Y3110D01*
X3296Y3106D01*
X3287Y3100D01*
X3279Y3093D01*
X3272Y3085D01*
X3267Y3075D01*
X3264Y3065D01*
X3262Y3055D01*
X3262Y3044D01*
X3264Y3034D01*
X3267Y3024D01*
X3272Y3014D01*
X3279Y3006D01*
X3287Y2999D01*
X3296Y2993D01*
X3306Y2989D01*
X3316Y2987D01*
X3327Y2987D01*
X3338Y2988D01*
X3348Y2991D01*
X3358Y2996D01*
X3366Y3002D01*
X3374Y3010D01*
X3379Y3019D01*
X3384Y3029D01*
X3387Y3039D01*
X3388Y3050D01*
X3264Y3050D01*
X3386Y3050D01*
X3325Y3111D02*
X3325Y2989D01*
X3938Y3050D02*
X3938Y3050D01*
X3937Y3060D01*
X3934Y3070D01*
X3929Y3080D01*
X3924Y3089D01*
X3916Y3097D01*
X3908Y3103D01*
X3898Y3108D01*
X3888Y3111D01*
X3877Y3112D01*
X3866Y3112D01*
X3856Y3110D01*
X3846Y3106D01*
X3837Y3100D01*
X3829Y3093D01*
X3822Y3085D01*
X3817Y3075D01*
X3814Y3065D01*
X3812Y3055D01*
X3812Y3044D01*
X3814Y3034D01*
X3817Y3024D01*
X3822Y3014D01*
X3829Y3006D01*
X3837Y2999D01*
X3846Y2993D01*
X3856Y2989D01*
X3866Y2987D01*
X3877Y2987D01*
X3888Y2988D01*
X3898Y2991D01*
X3908Y2996D01*
X3916Y3002D01*
X3924Y3010D01*
X3929Y3019D01*
X3934Y3029D01*
X3937Y3039D01*
X3938Y3050D01*
X3814Y3050D01*
X3936Y3050D01*
X3875Y3111D02*
X3875Y2989D01*
D02*
D33*
X3450Y3100D03*
X3750Y3100D03*
X3450Y3000D03*
X3750Y3000D03*
D02*
D43*
X10025Y1325D03*
X10200Y1325D03*
X9175Y1300D03*
D02*
D23*
X9175Y1200D03*
X8825Y1700D03*
X9175Y1700D03*
D02*
D53*
X9350Y1700D03*
D02*
D33*
X9350Y1600D03*
X9350Y1500D03*
X9350Y1400D03*
X9350Y1300D03*
X9350Y1200D03*
X9350Y1100D03*
X9650Y1700D03*
X9650Y1600D03*
X9650Y1500D03*
X9650Y1400D03*
X9650Y1300D03*
X9650Y1200D03*
X9650Y1100D03*
X9350Y1875D03*
X9650Y1875D03*
D02*
D47*
X10550Y1900D03*
D02*
D23*
X10625Y1600D03*
D02*
D43*
X10425Y1600D03*
D02*
D27*
X11350Y1775D03*
X11350Y1575D03*
X11350Y1375D03*
D02*
D29*
X10550Y1200D03*
X8150Y1200D03*
D02*
D43*
X9825Y1200D03*
D02*
D23*
X9825Y1100D03*
D02*
D47*
X9825Y1425D03*
D02*
D21*
X9000Y1300D03*
X8950Y1225D03*
D02*
D42*
X8900Y1300D03*
D02*
D43*
X8700Y1600D03*
X10200Y1875D03*
D02*
D23*
X10200Y1475D03*
D02*
D43*
X10025Y1875D03*
D02*
D23*
X10025Y1475D03*
D02*
D43*
X11325Y2025D03*
D02*
D23*
X11425Y2025D03*
D02*
D43*
X9000Y2050D03*
D02*
D23*
X9000Y1950D03*
D02*
D33*
X9650Y1975D03*
X9650Y2075D03*
X9350Y1975D03*
X9350Y2075D03*
D02*
D11*
X10412Y2200D02*
X10412Y2200D01*
X10411Y2210D01*
X10410Y2220D01*
X10409Y2230D01*
X10406Y2240D01*
X10403Y2250D01*
X10400Y2260D01*
X10396Y2269D01*
X10391Y2278D01*
X10386Y2287D01*
X10380Y2296D01*
X10374Y2304D01*
X10367Y2311D01*
X10359Y2319D01*
X10352Y2325D01*
X10343Y2331D01*
X10335Y2337D01*
X10326Y2342D01*
X10317Y2347D01*
X10307Y2351D01*
X10298Y2354D01*
X10288Y2357D01*
X10278Y2359D01*
X10267Y2361D01*
X10257Y2361D01*
X10247Y2361D01*
X10237Y2361D01*
X10226Y2360D01*
X10216Y2358D01*
X10206Y2356D01*
X10197Y2353D01*
X10187Y2349D01*
X10178Y2345D01*
X10168Y2340D01*
X10160Y2334D01*
X10151Y2328D01*
X10143Y2322D01*
X10136Y2315D01*
X10129Y2308D01*
X10122Y2300D01*
X10116Y2291D01*
X10111Y2283D01*
X10106Y2274D01*
X10101Y2264D01*
X10097Y2255D01*
X10094Y2245D01*
X10091Y2235D01*
X10090Y2225D01*
X10088Y2215D01*
X10088Y2205D01*
X10088Y2194D01*
X10088Y2184D01*
X10090Y2174D01*
X10091Y2164D01*
X10094Y2154D01*
X10097Y2144D01*
X10101Y2135D01*
X10106Y2125D01*
X10111Y2116D01*
X10116Y2108D01*
X10122Y2099D01*
X10129Y2091D01*
X10136Y2084D01*
X10143Y2077D01*
X10151Y2071D01*
X10160Y2065D01*
X10169Y2059D01*
X10178Y2054D01*
X10187Y2050D01*
X10197Y2046D01*
X10206Y2043D01*
X10216Y2041D01*
X10226Y2039D01*
X10237Y2038D01*
X10247Y2038D01*
X10257Y2038D01*
X10267Y2038D01*
X10278Y2040D01*
X10288Y2042D01*
X10298Y2045D01*
X10307Y2048D01*
X10317Y2052D01*
X10326Y2057D01*
X10335Y2062D01*
X10343Y2068D01*
X10352Y2074D01*
X10359Y2080D01*
X10367Y2088D01*
X10374Y2095D01*
X10380Y2103D01*
X10386Y2112D01*
X10391Y2121D01*
X10396Y2130D01*
X10400Y2139D01*
X10403Y2149D01*
X10406Y2159D01*
X10409Y2169D01*
X10410Y2179D01*
X10411Y2189D01*
X10412Y2200D01*
X10090Y2200D01*
X10410Y2200D01*
X10250Y2360D02*
X10250Y2040D01*
D02*
D23*
X11200Y2075D03*
X11100Y2075D03*
D02*
D43*
X6325Y1325D03*
X6500Y1325D03*
X5475Y1300D03*
D02*
D23*
X5475Y1200D03*
X5125Y1700D03*
X5475Y1700D03*
D02*
D53*
X5650Y1700D03*
D02*
D33*
X5650Y1600D03*
X5650Y1500D03*
X5650Y1400D03*
X5650Y1300D03*
X5650Y1200D03*
X5650Y1100D03*
X5950Y1700D03*
X5950Y1600D03*
X5950Y1500D03*
X5950Y1400D03*
X5950Y1300D03*
X5950Y1200D03*
X5950Y1100D03*
X5650Y1875D03*
X5950Y1875D03*
D02*
D47*
X6850Y1900D03*
D02*
D23*
X6925Y1600D03*
D02*
D43*
X6725Y1600D03*
D02*
D27*
X7650Y1775D03*
X7650Y1575D03*
X7650Y1375D03*
D02*
D29*
X6850Y1200D03*
X4450Y1200D03*
D02*
D43*
X6125Y1200D03*
D02*
D23*
X6125Y1100D03*
D02*
D47*
X6125Y1425D03*
D02*
D21*
X5300Y1300D03*
X5250Y1225D03*
D02*
D42*
X5200Y1300D03*
D02*
D43*
X5000Y1600D03*
X6500Y1875D03*
D02*
D23*
X6500Y1475D03*
D02*
D43*
X6325Y1875D03*
D02*
D23*
X6325Y1475D03*
D02*
D43*
X7625Y2025D03*
D02*
D23*
X7725Y2025D03*
D02*
D43*
X5300Y2050D03*
D02*
D23*
X5300Y1950D03*
D02*
D33*
X5950Y1975D03*
X5950Y2075D03*
X5650Y1975D03*
X5650Y2075D03*
D02*
D11*
X6712Y2200D02*
X6712Y2200D01*
X6711Y2210D01*
X6710Y2220D01*
X6709Y2230D01*
X6706Y2240D01*
X6703Y2250D01*
X6700Y2260D01*
X6696Y2269D01*
X6691Y2278D01*
X6686Y2287D01*
X6680Y2296D01*
X6674Y2304D01*
X6667Y2311D01*
X6659Y2319D01*
X6652Y2325D01*
X6643Y2331D01*
X6635Y2337D01*
X6626Y2342D01*
X6617Y2347D01*
X6607Y2351D01*
X6598Y2354D01*
X6588Y2357D01*
X6578Y2359D01*
X6567Y2361D01*
X6557Y2361D01*
X6547Y2361D01*
X6537Y2361D01*
X6526Y2360D01*
X6516Y2358D01*
X6506Y2356D01*
X6497Y2353D01*
X6487Y2349D01*
X6478Y2345D01*
X6468Y2340D01*
X6460Y2334D01*
X6451Y2328D01*
X6443Y2322D01*
X6436Y2315D01*
X6429Y2308D01*
X6422Y2300D01*
X6416Y2291D01*
X6411Y2283D01*
X6406Y2274D01*
X6401Y2264D01*
X6397Y2255D01*
X6394Y2245D01*
X6391Y2235D01*
X6390Y2225D01*
X6388Y2215D01*
X6388Y2205D01*
X6388Y2194D01*
X6388Y2184D01*
X6390Y2174D01*
X6391Y2164D01*
X6394Y2154D01*
X6397Y2144D01*
X6401Y2135D01*
X6406Y2125D01*
X6411Y2116D01*
X6416Y2108D01*
X6422Y2099D01*
X6429Y2091D01*
X6436Y2084D01*
X6443Y2077D01*
X6451Y2071D01*
X6460Y2065D01*
X6469Y2059D01*
X6478Y2054D01*
X6487Y2050D01*
X6497Y2046D01*
X6506Y2043D01*
X6516Y2041D01*
X6526Y2039D01*
X6537Y2038D01*
X6547Y2038D01*
X6557Y2038D01*
X6567Y2038D01*
X6578Y2040D01*
X6588Y2042D01*
X6598Y2045D01*
X6607Y2048D01*
X6617Y2052D01*
X6626Y2057D01*
X6635Y2062D01*
X6643Y2068D01*
X6652Y2074D01*
X6659Y2080D01*
X6667Y2088D01*
X6674Y2095D01*
X6680Y2103D01*
X6686Y2112D01*
X6691Y2121D01*
X6696Y2130D01*
X6700Y2139D01*
X6703Y2149D01*
X6706Y2159D01*
X6709Y2169D01*
X6710Y2179D01*
X6711Y2189D01*
X6712Y2200D01*
X6390Y2200D01*
X6710Y2200D01*
X6550Y2360D02*
X6550Y2040D01*
D02*
D23*
X7500Y2075D03*
X7400Y2075D03*
D02*
D43*
X2625Y1325D03*
X2800Y1325D03*
X1775Y1300D03*
D02*
D23*
X1775Y1200D03*
X1425Y1700D03*
X1775Y1700D03*
D02*
D53*
X1950Y1700D03*
D02*
D33*
X1950Y1600D03*
X1950Y1500D03*
X1950Y1400D03*
X1950Y1300D03*
X1950Y1200D03*
X1950Y1100D03*
X2250Y1700D03*
X2250Y1600D03*
X2250Y1500D03*
X2250Y1400D03*
X2250Y1300D03*
X2250Y1200D03*
X2250Y1100D03*
X1950Y1875D03*
X2250Y1875D03*
D02*
D47*
X3150Y1900D03*
D02*
D23*
X3225Y1600D03*
D02*
D43*
X3025Y1600D03*
D02*
D27*
X3950Y1775D03*
X3950Y1575D03*
X3950Y1375D03*
D02*
D29*
X3150Y1200D03*
X750Y1200D03*
D02*
D43*
X2425Y1200D03*
D02*
D23*
X2425Y1100D03*
D02*
D47*
X2425Y1425D03*
D02*
D21*
X1600Y1300D03*
X1550Y1225D03*
D02*
D42*
X1500Y1300D03*
D02*
D43*
X1300Y1600D03*
X2800Y1875D03*
D02*
D23*
X2800Y1475D03*
D02*
D43*
X2625Y1875D03*
D02*
D23*
X2625Y1475D03*
D02*
D43*
X3925Y2025D03*
D02*
D23*
X4025Y2025D03*
D02*
D43*
X1600Y2050D03*
D02*
D23*
X1600Y1950D03*
D02*
D33*
X2250Y1975D03*
X2250Y2075D03*
X1950Y1975D03*
X1950Y2075D03*
D02*
D11*
X3012Y2200D02*
X3012Y2200D01*
X3011Y2210D01*
X3010Y2220D01*
X3009Y2230D01*
X3006Y2240D01*
X3003Y2250D01*
X3000Y2260D01*
X2996Y2269D01*
X2991Y2278D01*
X2986Y2287D01*
X2980Y2296D01*
X2974Y2304D01*
X2967Y2311D01*
X2959Y2319D01*
X2952Y2325D01*
X2943Y2331D01*
X2935Y2337D01*
X2926Y2342D01*
X2917Y2347D01*
X2907Y2351D01*
X2898Y2354D01*
X2888Y2357D01*
X2878Y2359D01*
X2867Y2361D01*
X2857Y2361D01*
X2847Y2361D01*
X2837Y2361D01*
X2826Y2360D01*
X2816Y2358D01*
X2806Y2356D01*
X2797Y2353D01*
X2787Y2349D01*
X2778Y2345D01*
X2768Y2340D01*
X2760Y2334D01*
X2751Y2328D01*
X2743Y2322D01*
X2736Y2315D01*
X2729Y2308D01*
X2722Y2300D01*
X2716Y2291D01*
X2711Y2283D01*
X2706Y2274D01*
X2701Y2264D01*
X2697Y2255D01*
X2694Y2245D01*
X2691Y2235D01*
X2690Y2225D01*
X2688Y2215D01*
X2688Y2205D01*
X2688Y2194D01*
X2688Y2184D01*
X2690Y2174D01*
X2691Y2164D01*
X2694Y2154D01*
X2697Y2144D01*
X2701Y2135D01*
X2706Y2125D01*
X2711Y2116D01*
X2716Y2108D01*
X2722Y2099D01*
X2729Y2091D01*
X2736Y2084D01*
X2743Y2077D01*
X2751Y2071D01*
X2760Y2065D01*
X2769Y2059D01*
X2778Y2054D01*
X2787Y2050D01*
X2797Y2046D01*
X2806Y2043D01*
X2816Y2041D01*
X2826Y2039D01*
X2837Y2038D01*
X2847Y2038D01*
X2857Y2038D01*
X2867Y2038D01*
X2878Y2040D01*
X2888Y2042D01*
X2898Y2045D01*
X2907Y2048D01*
X2917Y2052D01*
X2926Y2057D01*
X2935Y2062D01*
X2943Y2068D01*
X2952Y2074D01*
X2959Y2080D01*
X2967Y2088D01*
X2974Y2095D01*
X2980Y2103D01*
X2986Y2112D01*
X2991Y2121D01*
X2996Y2130D01*
X3000Y2139D01*
X3003Y2149D01*
X3006Y2159D01*
X3009Y2169D01*
X3010Y2179D01*
X3011Y2189D01*
X3012Y2200D01*
X2690Y2200D01*
X3010Y2200D01*
X2850Y2360D02*
X2850Y2040D01*
D02*
D23*
X3800Y2075D03*
X3700Y2075D03*
D02*
D11*
X7906Y850D02*
X7906Y850D01*
X7904Y854D01*
X7899Y856D01*
X7895Y854D01*
X7894Y849D01*
X7895Y845D01*
X7900Y844D01*
X7904Y845D01*
X7906Y850D01*
X7896Y850D01*
X7904Y850D01*
X7900Y854D02*
X7900Y846D01*
X11506Y850D02*
X11506Y850D01*
X11504Y854D01*
X11499Y856D01*
X11495Y854D01*
X11494Y849D01*
X11495Y845D01*
X11500Y844D01*
X11504Y845D01*
X11506Y850D01*
X11496Y850D01*
X11504Y850D01*
X11500Y854D02*
X11500Y846D01*
D02*
D23*
X10025Y925D03*
X10200Y925D03*
D02*
D33*
X9650Y1000D03*
X9350Y1000D03*
D02*
D47*
X11350Y975D03*
D02*
D23*
X8700Y1000D03*
D02*
D27*
X10975Y950D03*
D02*
D11*
X4206Y850D02*
X4206Y850D01*
X4204Y854D01*
X4199Y856D01*
X4195Y854D01*
X4194Y849D01*
X4195Y845D01*
X4200Y844D01*
X4204Y845D01*
X4206Y850D01*
X4196Y850D01*
X4204Y850D01*
X4200Y854D02*
X4200Y846D01*
X7806Y850D02*
X7806Y850D01*
X7804Y854D01*
X7799Y856D01*
X7795Y854D01*
X7794Y849D01*
X7795Y845D01*
X7800Y844D01*
X7804Y845D01*
X7806Y850D01*
X7796Y850D01*
X7804Y850D01*
X7800Y854D02*
X7800Y846D01*
D02*
D23*
X6325Y925D03*
X6500Y925D03*
D02*
D33*
X5950Y1000D03*
X5650Y1000D03*
D02*
D47*
X7650Y975D03*
D02*
D23*
X5000Y1000D03*
D02*
D27*
X7275Y950D03*
D02*
D11*
X506Y850D02*
X506Y850D01*
X504Y854D01*
X499Y856D01*
X495Y854D01*
X494Y849D01*
X495Y845D01*
X500Y844D01*
X504Y845D01*
X506Y850D01*
X496Y850D01*
X504Y850D01*
X500Y854D02*
X500Y846D01*
X4106Y850D02*
X4106Y850D01*
X4104Y854D01*
X4099Y856D01*
X4095Y854D01*
X4094Y849D01*
X4095Y845D01*
X4100Y844D01*
X4104Y845D01*
X4106Y850D01*
X4096Y850D01*
X4104Y850D01*
X4100Y854D02*
X4100Y846D01*
D02*
D23*
X2625Y925D03*
X2800Y925D03*
D02*
D33*
X2250Y1000D03*
X1950Y1000D03*
D02*
D47*
X3950Y975D03*
D02*
D23*
X1300Y1000D03*
D02*
D27*
X3575Y950D03*
D02*
D11*
X680Y650D02*
X680Y650D01*
X677Y661D01*
X671Y671D01*
X661Y677D01*
X649Y680D01*
X638Y677D01*
X628Y671D01*
X622Y661D01*
X620Y649D01*
X622Y638D01*
X628Y628D01*
X638Y622D01*
X650Y620D01*
X661Y622D01*
X671Y628D01*
X677Y638D01*
X680Y650D01*
X710Y650D01*
X709Y660D01*
X706Y671D01*
X701Y680D01*
X695Y689D01*
X687Y696D01*
X678Y702D01*
X668Y707D01*
X658Y709D01*
X647Y709D01*
X636Y708D01*
X626Y705D01*
X616Y700D01*
X608Y693D01*
X601Y685D01*
X595Y676D01*
X592Y665D01*
X590Y655D01*
X590Y644D01*
X592Y634D01*
X595Y623D01*
X601Y614D01*
X608Y606D01*
X616Y599D01*
X626Y594D01*
X636Y591D01*
X647Y590D01*
X658Y590D01*
X668Y592D01*
X678Y597D01*
X687Y603D01*
X695Y610D01*
X701Y619D01*
X706Y628D01*
X709Y639D01*
X710Y650D01*
X740Y650D01*
X739Y660D01*
X737Y670D01*
X734Y680D01*
X730Y690D01*
X725Y699D01*
X718Y707D01*
X711Y715D01*
X703Y722D01*
X694Y727D01*
X685Y732D01*
X675Y736D01*
X665Y738D01*
X655Y739D01*
X644Y739D01*
X634Y738D01*
X624Y736D01*
X614Y732D01*
X604Y727D01*
X596Y722D01*
X588Y715D01*
X581Y707D01*
X574Y699D01*
X569Y690D01*
X565Y680D01*
X562Y670D01*
X560Y660D01*
X560Y649D01*
X560Y639D01*
X562Y629D01*
X565Y619D01*
X569Y609D01*
X574Y600D01*
X581Y592D01*
X588Y584D01*
X596Y577D01*
X605Y572D01*
X614Y567D01*
X624Y563D01*
X634Y561D01*
X644Y560D01*
X655Y560D01*
X665Y561D01*
X675Y563D01*
X685Y567D01*
X695Y572D01*
X703Y577D01*
X711Y584D01*
X718Y592D01*
X725Y600D01*
X730Y609D01*
X734Y619D01*
X737Y629D01*
X739Y639D01*
X740Y650D01*
X770Y650D01*
X769Y660D01*
X768Y670D01*
X766Y680D01*
X762Y690D01*
X759Y700D01*
X754Y709D01*
X748Y718D01*
X742Y726D01*
X735Y733D01*
X728Y740D01*
X720Y747D01*
X711Y753D01*
X702Y757D01*
X692Y762D01*
X683Y765D01*
X673Y767D01*
X662Y769D01*
X652Y769D01*
X642Y769D01*
X631Y768D01*
X621Y766D01*
X611Y763D01*
X602Y760D01*
X593Y755D01*
X584Y750D01*
X575Y744D01*
X567Y737D01*
X560Y730D01*
X554Y722D01*
X548Y713D01*
X543Y704D01*
X538Y695D01*
X535Y685D01*
X532Y675D01*
X530Y665D01*
X530Y655D01*
X530Y644D01*
X530Y634D01*
X532Y624D01*
X535Y614D01*
X538Y604D01*
X543Y595D01*
X548Y586D01*
X554Y577D01*
X560Y569D01*
X567Y562D01*
X575Y555D01*
X584Y549D01*
X593Y544D01*
X602Y539D01*
X611Y536D01*
X621Y533D01*
X631Y531D01*
X642Y530D01*
X652Y530D01*
X662Y530D01*
X673Y532D01*
X683Y534D01*
X692Y537D01*
X702Y542D01*
X711Y546D01*
X720Y552D01*
X728Y559D01*
X735Y566D01*
X742Y573D01*
X748Y581D01*
X754Y590D01*
X759Y599D01*
X762Y609D01*
X766Y619D01*
X768Y629D01*
X769Y639D01*
X770Y650D01*
X500Y650D01*
X800Y650D01*
X650Y800D02*
X650Y500D01*
D02M02*
